<svg xmlns="http://www.w3.org/2000/svg" viewBox="0 0 804.94 257.49"><defs><style>.cls-1{fill:#fff;}.cls-2{fill:#7289da;}.cls-3{fill:#b83998;}.cls-4{fill:#00acd7;}.cls-5{fill:#dea584;}</style></defs><g id="Layer_2" data-name="Layer 2"><g id="Layer_1-2" data-name="Layer 1"><polygon points="608.9 257.36 608.9 256.36 612.03 256.36 612.03 253.24 613.03 253.24 613.03 257.36 608.9 257.36"/><path class="cls-1" d="M612.9,253.36v3.88H609v-.75h3.12v-3.13h.75m.25-.25H611.9v3.13h-3.12v1.25h4.37v-4.38Z"/><path d="M594.81,257.36v-1h7.3v1Zm-14.1,0v-1H588v1Zm-14.09,0v-1h7.3v1Zm-14.1,0v-1h7.3v1Zm-14.09,0v-1h7.29v1Zm-14.1,0v-1h7.3v1Zm-14.1,0v-1h7.3v1Zm-14.09,0v-1h7.3v1Zm-14.1,0v-1h7.3v1Zm-14.09,0v-1h7.3v1Zm-14.1,0v-1h7.3v1Zm-14.09,0v-1h7.29v1Zm-14.1,0v-1H433v1Zm-14.1,0v-1h7.3v1Zm-14.09,0v-1h7.3v1Zm-14.1,0v-1h7.3v1Zm-14.09,0v-1h7.3v1Zm-14.1,0v-1h7.3v1Zm-14.09,0v-1h7.29v1Zm-14.1,0v-1h7.3v1Zm-14.1,0v-1h7.3v1Zm-14.09,0v-1h7.3v1Zm-14.1,0v-1H292v1Zm-14.09,0v-1h7.3v1Zm-14.1,0v-1h7.3v1Zm-14.09,0v-1h7.29v1Zm-14.1,0v-1h7.3v1Zm-14.1,0v-1h7.3v1Zm-14.09,0v-1h7.3v1Z"/><path class="cls-1" d="M602,256.49v.75h-7.05v-.75H602m-14.09,0v.75h-7v-.75h7m-14.1,0v.75h-7v-.75h7m-14.1,0v.75h-7v-.75h7m-14.09,0v.75h-7.05v-.75h7.05m-14.1,0v.75h-7v-.75h7m-14.09,0v.75h-7v-.75h7m-14.1,0v.75h-7.05v-.75h7.05m-14.09,0v.75h-7.05v-.75h7.05m-14.1,0v.75h-7.05v-.75h7.05m-14.1,0v.75h-7v-.75h7m-14.09,0v.75h-7.05v-.75h7.05m-14.1,0v.75h-7v-.75h7m-14.09,0v.75h-7.05v-.75h7.05m-14.1,0v.75h-7.05v-.75h7.05m-14.09,0v.75H383.5v-.75h7.05m-14.1,0v.75H369.4v-.75h7.05m-14.1,0v.75h-7v-.75h7m-14.09,0v.75h-7.05v-.75h7.05m-14.1,0v.75h-7v-.75h7m-14.09,0v.75H313v-.75h7.05m-14.1,0v.75h-7.05v-.75H306m-14.09,0v.75h-7.05v-.75h7.05m-14.1,0v.75h-7v-.75h7m-14.1,0v.75h-7v-.75h7m-14.09,0v.75h-7.05v-.75h7.05m-14.1,0v.75h-7.05v-.75h7.05m-14.09,0v.75h-7.05v-.75h7.05m-14.1,0v.75h-7.05v-.75h7.05m394.93-.25h-7.55v1.25h7.55v-1.25Zm-14.09,0h-7.55v1.25h7.55v-1.25Zm-14.1,0h-7.55v1.25H574v-1.25Zm-14.1,0H552.4v1.25h7.54v-1.25Zm-14.09,0H538.3v1.25h7.55v-1.25Zm-14.1,0h-7.54v1.25h7.54v-1.25Zm-14.09,0h-7.55v1.25h7.55v-1.25Zm-14.1,0H496v1.25h7.55v-1.25Zm-14.09,0h-7.55v1.25h7.55v-1.25Zm-14.1,0h-7.55v1.25h7.55v-1.25Zm-14.1,0h-7.54v1.25h7.54v-1.25Zm-14.09,0h-7.55v1.25h7.55v-1.25Zm-14.1,0h-7.54v1.25h7.54v-1.25Zm-14.09,0h-7.55v1.25H419v-1.25Zm-14.1,0h-7.55v1.25h7.55v-1.25Zm-14.09,0h-7.55v1.25h7.55v-1.25Zm-14.1,0h-7.55v1.25h7.55v-1.25Zm-14.1,0h-7.54v1.25h7.54v-1.25Zm-14.09,0H341v1.25h7.55v-1.25Zm-14.1,0h-7.54v1.25h7.54v-1.25Zm-14.09,0h-7.55v1.25h7.55v-1.25Zm-14.1,0h-7.55v1.25h7.55v-1.25Zm-14.09,0h-7.55v1.25h7.55v-1.25Zm-14.1,0h-7.55v1.25H278v-1.25Zm-14.1,0h-7.54v1.25h7.54v-1.25Zm-14.09,0h-7.55v1.25h7.55v-1.25Zm-14.1,0h-7.55v1.25h7.55v-1.25Zm-14.09,0H214.1v1.25h7.55v-1.25Zm-14.1,0H200v1.25h7.55v-1.25Z"/><polygon points="189.21 257.36 189.21 253.24 190.21 253.24 190.21 256.36 193.33 256.36 193.33 257.36 189.21 257.36"/><path class="cls-1" d="M190.08,253.36v3.13h3.13v.75h-3.88v-3.88h.75m.25-.25h-1.25v4.38h4.38v-1.25h-3.13v-3.13Z"/><path d="M189.21,246.36V239h1v7.37Zm0-14.24v-7.37h1v7.37Zm0-14.24v-7.37h1v7.37Zm0-14.24v-7.37h1v7.37Zm0-14.24V182h1v7.37Zm0-14.25v-7.37h1v7.37Zm0-14.24v-7.37h1v7.37Zm0-14.24V139.3h1v7.37Zm0-14.24v-7.37h1v7.37Zm0-14.24v-7.38h1v7.38Zm0-14.25V96.57h1v7.37Zm0-14.24V82.33h1V89.7Zm0-14.24V68.09h1v7.37Zm0-14.24V53.85h1v7.37Zm0-14.24V39.6h1V47Zm0-14.25V25.36h1v7.37Zm0-14.24V11.12h1v7.37Z"/><path class="cls-1" d="M190.08,11.25v7.12h-.75V11.25h.75m0,14.24v7.12h-.75V25.49h.75m0,14.24v7.12h-.75V39.73h.75m0,14.24v7.12h-.75V54h.75m0,14.24v7.12h-.75V68.21h.75m0,14.25v7.12h-.75V82.46h.75m0,14.24v7.12h-.75V96.7h.75m0,14.24v7.12h-.75v-7.12h.75m0,14.24v7.12h-.75v-7.12h.75m0,14.24v7.12h-.75v-7.12h.75m0,14.25v7.12h-.75v-7.12h.75m0,14.24V175h-.75v-7.12h.75m0,14.24v7.12h-.75v-7.12h.75m0,14.24v7.12h-.75v-7.12h.75m0,14.24v7.13h-.75v-7.13h.75m0,14.25V232h-.75v-7.12h.75m0,14.24v7.12h-.75v-7.12h.75M190.33,11h-1.25v7.62h1.25V11Zm0,14.24h-1.25v7.62h1.25V25.24Zm0,14.24h-1.25V47.1h1.25V39.48Zm0,14.24h-1.25v7.62h1.25V53.72Zm0,14.24h-1.25v7.62h1.25V68Zm0,14.25h-1.25v7.62h1.25V82.21Zm0,14.24h-1.25v7.62h1.25V96.45Zm0,14.24h-1.25v7.62h1.25v-7.62Zm0,14.24h-1.25v7.62h1.25v-7.62Zm0,14.24h-1.25v7.62h1.25v-7.62Zm0,14.25h-1.25V161h1.25v-7.62Zm0,14.24h-1.25v7.62h1.25v-7.62Zm0,14.24h-1.25v7.62h1.25V181.9Zm0,14.24h-1.25v7.62h1.25v-7.62Zm0,14.24h-1.25V218h1.25v-7.63Zm0,14.25h-1.25v7.62h1.25v-7.62Zm0,14.24h-1.25v7.62h1.25v-7.62Z"/><polygon points="189.21 4.25 189.21 0.13 193.33 0.13 193.33 1.13 190.21 1.13 190.21 4.25 189.21 4.25"/><path class="cls-1" d="M193.21.25V1h-3.13V4.13h-.75V.25h3.88m.25-.25h-4.38V4.38h1.25V1.25h3.13V0Z"/><path d="M594.81,1.13v-1h7.3v1Zm-14.1,0v-1H588v1Zm-14.09,0v-1h7.3v1Zm-14.1,0v-1h7.3v1Zm-14.09,0v-1h7.29v1Zm-14.1,0v-1h7.3v1Zm-14.1,0v-1h7.3v1Zm-14.09,0v-1h7.3v1Zm-14.1,0v-1h7.3v1ZM468,1.13v-1h7.3v1Zm-14.1,0v-1h7.3v1Zm-14.09,0v-1h7.29v1Zm-14.1,0v-1H433v1Zm-14.1,0v-1h7.3v1Zm-14.09,0v-1h7.3v1Zm-14.1,0v-1h7.3v1Zm-14.09,0v-1h7.3v1Zm-14.1,0v-1h7.3v1Zm-14.09,0v-1h7.29v1Zm-14.1,0v-1h7.3v1Zm-14.1,0v-1h7.3v1Zm-14.09,0v-1h7.3v1Zm-14.1,0v-1H292v1Zm-14.09,0v-1h7.3v1Zm-14.1,0v-1h7.3v1Zm-14.09,0v-1h7.29v1Zm-14.1,0v-1h7.3v1Zm-14.1,0v-1h7.3v1Zm-14.09,0v-1h7.3v1Z"/><path class="cls-1" d="M602,.25V1h-7.05V.25H602m-14.09,0V1h-7V.25h7m-14.1,0V1h-7V.25h7m-14.1,0V1h-7V.25h7M545.6.25V1h-7.05V.25h7.05m-14.1,0V1h-7V.25h7m-14.09,0V1h-7V.25h7m-14.1,0V1h-7.05V.25h7.05m-14.09,0V1h-7.05V.25h7.05m-14.1,0V1h-7.05V.25h7.05M461,.25V1h-7V.25h7m-14.09,0V1h-7.05V.25h7.05m-14.1,0V1h-7V.25h7m-14.09,0V1h-7.05V.25h7.05m-14.1,0V1h-7.05V.25h7.05m-14.09,0V1H383.5V.25h7.05m-14.1,0V1H369.4V.25h7.05m-14.1,0V1h-7V.25h7m-14.09,0V1h-7.05V.25h7.05m-14.1,0V1h-7V.25h7m-14.09,0V1H313V.25h7.05M306,.25V1h-7.05V.25H306m-14.09,0V1h-7.05V.25h7.05m-14.1,0V1h-7V.25h7m-14.1,0V1h-7V.25h7m-14.09,0V1h-7.05V.25h7.05m-14.1,0V1h-7V.25h7M221.4.25V1h-7.05V.25h7.05m-14.1,0V1h-7.05V.25h7.05M602.23,0h-7.55V1.25h7.55V0ZM588.14,0h-7.55V1.25h7.55V0ZM574,0h-7.55V1.25H574V0Zm-14.1,0H552.4V1.25h7.54V0ZM545.85,0H538.3V1.25h7.55V0Zm-14.1,0h-7.54V1.25h7.54V0ZM517.66,0h-7.55V1.25h7.55V0Zm-14.1,0H496V1.25h7.55V0ZM489.47,0h-7.55V1.25h7.55V0Zm-14.1,0h-7.55V1.25h7.55V0Zm-14.1,0h-7.54V1.25h7.54V0ZM447.18,0h-7.55V1.25h7.55V0Zm-14.1,0h-7.54V1.25h7.54V0ZM419,0h-7.55V1.25H419V0Zm-14.1,0h-7.55V1.25h7.55V0ZM390.8,0h-7.55V1.25h7.55V0ZM376.7,0h-7.55V1.25h7.55V0ZM362.6,0h-7.54V1.25h7.54V0ZM348.51,0H341V1.25h7.55V0Zm-14.1,0h-7.54V1.25h7.54V0ZM320.32,0h-7.55V1.25h7.55V0Zm-14.1,0h-7.55V1.25h7.55V0ZM292.13,0h-7.55V1.25h7.55V0ZM278,0h-7.55V1.25H278V0Zm-14.1,0h-7.54V1.25h7.54V0ZM249.84,0h-7.55V1.25h7.55V0Zm-14.1,0H228.2V1.25h7.54V0ZM221.65,0H214.1V1.25h7.55V0Zm-14.1,0H200V1.25h7.55V0Z"/><polygon points="612.03 4.25 612.03 1.13 608.9 1.13 608.9 0.13 613.03 0.13 613.03 4.25 612.03 4.25"/><path class="cls-1" d="M612.9.25V4.13h-.75V1H609V.25h3.87m.25-.25h-4.37V1.25h3.12V4.38h1.25V0Z"/><path d="M612,246.36V239h1v7.37Zm0-14.24v-7.37h1v7.37Zm0-14.24v-7.37h1v7.37Zm0-14.24v-7.37h1v7.37Zm0-14.24V182h1v7.37Zm0-14.25v-7.37h1v7.37Zm0-14.24v-7.37h1v7.37Zm0-14.24V139.3h1v7.37Zm0-14.24v-7.37h1v7.37Zm0-14.24v-7.37h1v7.37Zm0-14.25V96.57h1v7.37Zm0-14.24V82.33h1V89.7Zm0-14.24V68.09h1v7.37Zm0-14.24V53.85h1v7.37ZM612,47V39.6h1V47Zm0-14.25V25.36h1v7.37Zm0-14.24V11.12h1v7.37Z"/><path class="cls-1" d="M612.9,11.25v7.12h-.75V11.25h.75m0,14.24v7.12h-.75V25.49h.75m0,14.24v7.12h-.75V39.73h.75m0,14.24v7.12h-.75V54h.75m0,14.24v7.12h-.75V68.21h.75m0,14.25v7.12h-.75V82.46h.75m0,14.24v7.12h-.75V96.7h.75m0,14.24v7.12h-.75v-7.12h.75m0,14.24v7.12h-.75v-7.12h.75m0,14.24v7.13h-.75v-7.13h.75m0,14.25v7.12h-.75v-7.12h.75m0,14.24V175h-.75v-7.12h.75m0,14.24v7.12h-.75v-7.12h.75m0,14.24v7.12h-.75v-7.12h.75m0,14.24v7.13h-.75v-7.13h.75m0,14.25V232h-.75v-7.12h.75m0,14.24v7.12h-.75v-7.12h.75M613.15,11H611.9v7.62h1.25V11Zm0,14.24H611.9v7.62h1.25V25.24Zm0,14.24H611.9V47.1h1.25V39.48Zm0,14.24H611.9v7.62h1.25V53.72Zm0,14.24H611.9v7.62h1.25V68Zm0,14.25H611.9v7.62h1.25V82.21Zm0,14.24H611.9v7.62h1.25V96.45Zm0,14.24H611.9v7.62h1.25v-7.62Zm0,14.24H611.9v7.62h1.25v-7.62Zm0,14.24H611.9v7.63h1.25v-7.63Zm0,14.25H611.9V161h1.25v-7.62Zm0,14.24H611.9v7.62h1.25v-7.62Zm0,14.24H611.9v7.62h1.25V181.9Zm0,14.24H611.9v7.62h1.25v-7.62Zm0,14.24H611.9V218h1.25v-7.63Zm0,14.25H611.9v7.62h1.25v-7.62Zm0,14.24H611.9v7.62h1.25v-7.62Z"/><path d="M626.69,72.79H590.45V71h36.24l-1.85-5.11,1.09.95a30.41,30.41,0,0,0,8.43,4.69l.95.35-.94.35A30.32,30.32,0,0,0,625.93,77l-1.09,1Z"/><path class="cls-1" d="M625.69,67.16a29.91,29.91,0,0,0,8.54,4.76,30.12,30.12,0,0,0-8.54,4.75l1.54-4.25H590.82v-1h36.41l-1.54-4.26M624,64.69l1,2.73,1.18,3.25H590.07v2.5h36.09L625,76.42l-1,2.72,2.18-1.9a29.82,29.82,0,0,1,8.32-4.62l1.89-.7-1.89-.7a29.82,29.82,0,0,1-8.32-4.62L624,64.69Z"/><path d="M626.69,112.32H590.45v-1.75h36.24l-1.85-5.11,1.09,1a30.32,30.32,0,0,0,8.44,4.69l.94.35-.94.35a30.07,30.07,0,0,0-8.44,4.69l-1.09,1Z"/><path class="cls-1" d="M625.69,106.69a30,30,0,0,0,8.55,4.76,30.18,30.18,0,0,0-8.55,4.75l1.54-4.25H590.82v-1h36.41l-1.54-4.26M624,104.22l1,2.73,1.18,3.25H590.07v2.5h36.09L625,116l-1,2.72,2.18-1.9a29.82,29.82,0,0,1,8.32-4.62l1.89-.7-1.89-.7a29.82,29.82,0,0,1-8.32-4.62L624,104.22Z"/><path d="M626.69,151.85H590.45V150.1h36.24L624.84,145l1.09.95a30.41,30.41,0,0,0,8.43,4.69l.95.35-.94.35a30.07,30.07,0,0,0-8.44,4.69l-1.09.95Z"/><path class="cls-1" d="M625.69,146.22a29.91,29.91,0,0,0,8.54,4.76,30.12,30.12,0,0,0-8.54,4.75l1.54-4.25H590.82v-1h36.41l-1.54-4.26M624,143.75l1,2.73,1.18,3.25H590.07v2.5h36.09L625,155.48l-1,2.72,2.18-1.9a29.82,29.82,0,0,1,8.32-4.62l1.89-.7-1.89-.71a29.53,29.53,0,0,1-8.32-4.61L624,143.75Z"/><path d="M203.87,67H167.63V65.27h36.24L202,60.15l1.09,1a30.37,30.37,0,0,0,8.43,4.68l1,.35-1,.36a30.37,30.37,0,0,0-8.43,4.68l-1.09.95Z"/><path class="cls-1" d="M202.86,61.39a30.31,30.31,0,0,0,8.55,4.75,30.59,30.59,0,0,0-8.55,4.76l1.54-4.26H168v-1h36.4l-1.54-4.25m-1.69-2.47,1,2.72,1.17,3.25H167.25v2.5h36.08l-1.17,3.25-1,2.73,2.19-1.91a30.13,30.13,0,0,1,8.31-4.61l1.9-.71-1.9-.7a29.91,29.91,0,0,1-8.31-4.62l-2.19-1.9Z"/><path d="M387.71,161.79a30.53,30.53,0,0,0-8.43-4.69l-.95-.35.95-.35a30.37,30.37,0,0,0,8.43-4.68l1.09-1L387,155.88H423.2v1.75H387l1.85,5.11Z"/><path class="cls-1" d="M388,152l-1.54,4.25h36.4v1h-36.4l1.54,4.26a30.34,30.34,0,0,0-8.55-4.76A30.31,30.31,0,0,0,388,152m1.69-2.47-2.18,1.9a30,30,0,0,1-8.32,4.62l-1.9.7,1.9.71a29.78,29.78,0,0,1,8.32,4.61l2.18,1.91-1-2.73L387.49,158h36.08v-2.5H387.49l1.17-3.25,1-2.72Z"/><path d="M176.3,161.79a30.67,30.67,0,0,0-8.43-4.69l-1-.35,1-.35a30.37,30.37,0,0,0,8.43-4.68l1.09-1-1.85,5.12h36.25v1.75H175.54l1.85,5.11Z"/><path class="cls-1" d="M176.55,152,175,156.25h36.4v1H175l1.54,4.26a30.34,30.34,0,0,0-8.55-4.76,30.31,30.31,0,0,0,8.55-4.75m1.69-2.47-2.19,1.9a29.91,29.91,0,0,1-8.31,4.62l-1.9.7,1.9.71a30,30,0,0,1,8.31,4.61l2.19,1.91-1-2.73L176.08,158h36.08v-2.5H176.08l1.17-3.25,1-2.72Z"/><rect class="cls-2" y="27.45" width="168" height="168" rx="18"/><path d="M415.28,67H379V65.27h36.24l-1.85-5.12,1.09,1A30.37,30.37,0,0,0,423,65.79l.95.35-.95.36a30.37,30.37,0,0,0-8.43,4.68l-1.09.95Z"/><path class="cls-1" d="M414.28,61.39a30.12,30.12,0,0,0,8.54,4.75,30.39,30.39,0,0,0-8.54,4.76l1.54-4.26H379.41v-1h36.41l-1.54-4.25m-1.69-2.47,1,2.72,1.18,3.25H378.66v2.5h36.09l-1.18,3.25-1,2.73,2.18-1.91a30.13,30.13,0,0,1,8.31-4.61l1.9-.71-1.9-.7a29.91,29.91,0,0,1-8.31-4.62l-2.18-1.9Z"/><rect class="cls-3" x="422.82" y="27.45" width="168" height="168" rx="18"/><path class="cls-1" d="M479.56,106.26V98.61l-2.77,5.57h-1.58l-2.78-5.57v7.65h-2.95V93.48h3.21l3.31,6.68,3.33-6.68h3.18v12.78Z"/><path class="cls-1" d="M489.12,106.44a5.73,5.73,0,0,1-2.13-.38,4.61,4.61,0,0,1-1.6-1.06,4.32,4.32,0,0,1-1-1.53,5,5,0,0,1-.35-1.83,5.43,5.43,0,0,1,.35-1.94,4.53,4.53,0,0,1,1-1.59A4.48,4.48,0,0,1,487,97a5.6,5.6,0,0,1,2.15-.4,5.52,5.52,0,0,1,2.14.4,4.69,4.69,0,0,1,1.59,1.07,4.53,4.53,0,0,1,1,1.56,5.23,5.23,0,0,1,.33,1.85c0,.17,0,.34,0,.5a4.05,4.05,0,0,1-.05.42h-7a1.89,1.89,0,0,0,.69,1.45,2.18,2.18,0,0,0,1.41.49,2.65,2.65,0,0,0,1.22-.3,1.57,1.57,0,0,0,.78-.83l2.45.68a4.44,4.44,0,0,1-1.73,1.82A5.35,5.35,0,0,1,489.12,106.44Zm2-5.79a2.15,2.15,0,0,0-.65-1.42,1.94,1.94,0,0,0-1.39-.53,1.91,1.91,0,0,0-1.39.54,2.16,2.16,0,0,0-.64,1.41Z"/><path class="cls-1" d="M499.2,106.44a7.79,7.79,0,0,1-2.38-.38,5.49,5.49,0,0,1-2-1.13l1-1.76a9.42,9.42,0,0,0,1.68.92,4.41,4.41,0,0,0,1.58.32,1.58,1.58,0,0,0,.86-.2.63.63,0,0,0,.31-.57.68.68,0,0,0-.39-.61,5.66,5.66,0,0,0-1.36-.47c-.63-.18-1.17-.36-1.61-.53a4.43,4.43,0,0,1-1.07-.55,1.79,1.79,0,0,1-.59-.71,2.2,2.2,0,0,1-.18-.93,3,3,0,0,1,.28-1.32,3,3,0,0,1,.8-1,3.5,3.5,0,0,1,1.19-.65,4.6,4.6,0,0,1,1.51-.24,6.67,6.67,0,0,1,2,.29,4.93,4.93,0,0,1,1.8,1l-1.12,1.72a7.83,7.83,0,0,0-1.44-.81,3.45,3.45,0,0,0-1.22-.25,1.63,1.63,0,0,0-.8.19.66.66,0,0,0-.32.6.65.65,0,0,0,.35.6,6.31,6.31,0,0,0,1.31.43,17.41,17.41,0,0,1,1.7.54,4.65,4.65,0,0,1,1.12.6,2.07,2.07,0,0,1,.63.77,2.47,2.47,0,0,1,.2,1,2.73,2.73,0,0,1-1,2.24A4.45,4.45,0,0,1,499.2,106.44Z"/><path class="cls-1" d="M508.18,106.44a7.73,7.73,0,0,1-2.37-.38,5.49,5.49,0,0,1-2-1.13l1-1.76a9.42,9.42,0,0,0,1.68.92,4.45,4.45,0,0,0,1.58.32,1.58,1.58,0,0,0,.86-.2.63.63,0,0,0,.31-.57.68.68,0,0,0-.39-.61,5.49,5.49,0,0,0-1.36-.47c-.63-.18-1.17-.36-1.61-.53a4.63,4.63,0,0,1-1.07-.55,1.87,1.87,0,0,1-.59-.71,2.2,2.2,0,0,1-.18-.93,2.9,2.9,0,0,1,.29-1.32,2.85,2.85,0,0,1,.79-1,3.46,3.46,0,0,1,1.2-.65,4.54,4.54,0,0,1,1.5-.24,6.74,6.74,0,0,1,2,.29,4.89,4.89,0,0,1,1.79,1l-1.12,1.72a7.83,7.83,0,0,0-1.44-.81,3.45,3.45,0,0,0-1.22-.25,1.59,1.59,0,0,0-.79.19.7.7,0,0,0,0,1.2,6.31,6.31,0,0,0,1.31.43,16.58,16.58,0,0,1,1.7.54,4.47,4.47,0,0,1,1.12.6,2.07,2.07,0,0,1,.63.77,2.32,2.32,0,0,1,.2,1,2.73,2.73,0,0,1-1,2.24A4.45,4.45,0,0,1,508.18,106.44Z"/><path class="cls-1" d="M516.12,106.44a3.66,3.66,0,0,1-1.3-.22,3,3,0,0,1-1-.63,2.91,2.91,0,0,1-.68-1,2.84,2.84,0,0,1-.26-1.2,2.72,2.72,0,0,1,.3-1.28,3,3,0,0,1,.84-1,4.06,4.06,0,0,1,1.28-.65,5.53,5.53,0,0,1,1.63-.23,6.34,6.34,0,0,1,1.16.1,3.69,3.69,0,0,1,1,.29v-.43c0-1.09-.63-1.64-1.89-1.64a4.09,4.09,0,0,0-1.48.27,6.59,6.59,0,0,0-1.47.78l-.85-1.8a7.31,7.31,0,0,1,1.94-.92,7.55,7.55,0,0,1,2.15-.31,4.94,4.94,0,0,1,3.31,1,3.68,3.68,0,0,1,1.17,3V103a1,1,0,0,0,.13.61.67.67,0,0,0,.48.2v2.43a5.16,5.16,0,0,1-.68.12l-.56,0a2,2,0,0,1-1.23-.32,1.39,1.39,0,0,1-.52-.89l0-.43A4.34,4.34,0,0,1,518,106,4.12,4.12,0,0,1,516.12,106.44Zm.85-2.07a2.51,2.51,0,0,0,.9-.16,2.08,2.08,0,0,0,.73-.43.89.89,0,0,0,.42-.68v-.9a4.91,4.91,0,0,0-.82-.23,5,5,0,0,0-.82-.08,2.25,2.25,0,0,0-1.31.36,1.1,1.1,0,0,0-.51.94,1.05,1.05,0,0,0,.4.85A1.52,1.52,0,0,0,517,104.37Z"/><path class="cls-1" d="M527.66,106.3a3.84,3.84,0,0,1-1.71-.38,4,4,0,0,1-1.33-1,4.9,4.9,0,0,1-.85-1.52,5.57,5.57,0,0,1-.31-1.85,5.47,5.47,0,0,1,.33-1.93,4.58,4.58,0,0,1,.9-1.55,4.06,4.06,0,0,1,1.38-1,4.22,4.22,0,0,1,1.79-.38,3.79,3.79,0,0,1,1.88.46A3.54,3.54,0,0,1,531,98.36V96.81h2.51v8.81a4.52,4.52,0,0,1-.41,1.94A4.17,4.17,0,0,1,532,109a5,5,0,0,1-1.73.92,7.09,7.09,0,0,1-2.22.33,6.24,6.24,0,0,1-2.61-.49,5.48,5.48,0,0,1-1.89-1.4l1.55-1.57a3.81,3.81,0,0,0,1.3,1,4,4,0,0,0,1.65.35,3.21,3.21,0,0,0,1-.15,2.21,2.21,0,0,0,.83-.44,2,2,0,0,0,.57-.77,2.83,2.83,0,0,0,.21-1.14v-.92a2.84,2.84,0,0,1-1.25,1.2A3.83,3.83,0,0,1,527.66,106.3Zm1-2.29a2.06,2.06,0,0,0,1.19-.36,2.76,2.76,0,0,0,.81-1v-2a2.71,2.71,0,0,0-.89-1.2,2.08,2.08,0,0,0-1.26-.44,1.76,1.76,0,0,0-.85.21,2.11,2.11,0,0,0-.67.56,2.61,2.61,0,0,0-.43.81,3,3,0,0,0-.15.94,2.49,2.49,0,0,0,.17,1,2.18,2.18,0,0,0,.48.77,2.08,2.08,0,0,0,.71.5A2.14,2.14,0,0,0,528.65,104Z"/><path class="cls-1" d="M540,106.44a5.73,5.73,0,0,1-2.13-.38,4.71,4.71,0,0,1-1.6-1.06,4.46,4.46,0,0,1-1-1.53,5,5,0,0,1-.34-1.83,5.42,5.42,0,0,1,.34-1.94,4.84,4.84,0,0,1,1-1.59A4.48,4.48,0,0,1,537.87,97a6,6,0,0,1,4.3,0,4.65,4.65,0,0,1,1.58,1.07,4.53,4.53,0,0,1,1,1.56,5.23,5.23,0,0,1,.33,1.85c0,.17,0,.34,0,.5a3.84,3.84,0,0,1-.06.42h-7a2,2,0,0,0,.69,1.45,2.2,2.2,0,0,0,1.41.49,2.65,2.65,0,0,0,1.22-.3,1.57,1.57,0,0,0,.78-.83l2.45.68a4.38,4.38,0,0,1-1.73,1.82A5.33,5.33,0,0,1,540,106.44Zm2-5.79a2.11,2.11,0,0,0-.65-1.42,2.07,2.07,0,0,0-2.78,0,2.21,2.21,0,0,0-.64,1.41Z"/><path class="cls-1" d="M485.17,128a3.83,3.83,0,0,1-1.89-.45A3.37,3.37,0,0,1,482,126.3v1.56h-2.5V114.72h2.88V120a3.46,3.46,0,0,1,1.25-1.27,3.65,3.65,0,0,1,1.85-.46,3.55,3.55,0,0,1,1.65.39,4,4,0,0,1,1.3,1,5,5,0,0,1,.84,1.58,5.87,5.87,0,0,1,.31,1.93,5.45,5.45,0,0,1-.33,1.92,4.82,4.82,0,0,1-.93,1.55,4.35,4.35,0,0,1-1.41,1A4.2,4.2,0,0,1,485.17,128Zm-.81-2.43a2.32,2.32,0,0,0,.92-.18,2.29,2.29,0,0,0,.71-.52,2.44,2.44,0,0,0,.47-.76,2.78,2.78,0,0,0,.17-1,3.12,3.12,0,0,0-.16-1,2.72,2.72,0,0,0-.45-.8,2,2,0,0,0-.67-.54,1.9,1.9,0,0,0-2.1.27,3,3,0,0,0-.87,1.17v2a2.18,2.18,0,0,0,.84,1A2,2,0,0,0,484.36,125.61Z"/><path class="cls-1" d="M497,120.88a5.67,5.67,0,0,0-1.89.34,2.33,2.33,0,0,0-1.22,1v5.67H491v-9.45h2.65v1.91a4,4,0,0,1,1.25-1.49,2.86,2.86,0,0,1,1.63-.56h.28l.18,0Z"/><path class="cls-1" d="M502.25,128a5.61,5.61,0,0,1-2.15-.39,4.74,4.74,0,0,1-1.59-1.07,4.34,4.34,0,0,1-1-1.57,5.26,5.26,0,0,1,0-3.72,4.34,4.34,0,0,1,1-1.57,4.76,4.76,0,0,1,1.59-1.08,5.42,5.42,0,0,1,2.15-.41,5.3,5.3,0,0,1,2.14.41,4.76,4.76,0,0,1,1.59,1.08,4.65,4.65,0,0,1,1,1.57,5.33,5.33,0,0,1,0,3.72,4.51,4.51,0,0,1-1,1.57,4.74,4.74,0,0,1-1.59,1.07A5.57,5.57,0,0,1,502.25,128Zm-2.1-4.89a2.6,2.6,0,0,0,.59,1.79,1.93,1.93,0,0,0,1.51.67,1.9,1.9,0,0,0,.83-.18,2,2,0,0,0,.66-.5,2.68,2.68,0,0,0,.44-.78,3.22,3.22,0,0,0,.16-1,2.58,2.58,0,0,0-.6-1.79,1.89,1.89,0,0,0-1.49-.68,2,2,0,0,0-.84.18,1.92,1.92,0,0,0-.66.51,2.12,2.12,0,0,0-.44.78A3,3,0,0,0,500.15,123.15Z"/><path class="cls-1" d="M515.09,127.86l-2.47-3.79-1,1v2.75h-2.88V114.72h2.88v7.62l3.19-3.93h3.06l-3.41,4.07,3.7,5.38Z"/><path class="cls-1" d="M523,128a5.54,5.54,0,0,1-2.13-.38,4.71,4.71,0,0,1-1.6-1.06,4.46,4.46,0,0,1-1-1.53,5,5,0,0,1-.34-1.83,5.42,5.42,0,0,1,.34-1.94,4.84,4.84,0,0,1,1-1.59,4.48,4.48,0,0,1,1.59-1.08,6,6,0,0,1,4.3,0,4.65,4.65,0,0,1,1.58,1.07,4.53,4.53,0,0,1,1,1.56,5.23,5.23,0,0,1,.33,1.85c0,.17,0,.34,0,.5a2.35,2.35,0,0,1-.06.42h-7a2,2,0,0,0,.69,1.45,2.23,2.23,0,0,0,1.42.49,2.61,2.61,0,0,0,1.21-.3,1.57,1.57,0,0,0,.78-.83l2.45.68a4.38,4.38,0,0,1-1.73,1.82A5.33,5.33,0,0,1,523,128Zm2-5.79a2.14,2.14,0,0,0-.64-1.42,2,2,0,0,0-1.39-.53,1.92,1.92,0,0,0-1.4.54,2.15,2.15,0,0,0-.63,1.41Z"/><path class="cls-1" d="M535.35,120.88a5.67,5.67,0,0,0-1.89.34,2.33,2.33,0,0,0-1.22,1v5.67h-2.88v-9.45H532v1.91a4.12,4.12,0,0,1,1.26-1.49,2.86,2.86,0,0,1,1.62-.56h.29l.18,0Z"/><path class="cls-1" d="M36,108.47a2,2,0,0,0-1.91,2,1.91,1.91,0,1,0,1.91-2Zm-6.83,0a2,2,0,0,0-1.9,2,1.91,1.91,0,1,0,3.81,0A2,2,0,0,0,29.14,108.47Z"/><path class="cls-1" d="M45.05,92.91H20a3.84,3.84,0,0,0-3.83,3.83V121.8A3.84,3.84,0,0,0,20,125.63H41.2l-1-3.42,2.4,2.2,2.26,2.08,4,3.5V96.74A3.87,3.87,0,0,0,45.05,92.91Zm-7.21,24.21s-.68-.8-1.24-1.49A5.94,5.94,0,0,0,40,113.42a10.45,10.45,0,0,1-2.15,1.1,13.15,13.15,0,0,1-2.71.81,13.32,13.32,0,0,1-4.85,0,15,15,0,0,1-2.74-.8,11.79,11.79,0,0,1-1.37-.64l-.17-.09s-.05,0-.07,0c-.34-.19-.53-.32-.53-.32a5.85,5.85,0,0,0,3.28,2.19c-.56.71-1.26,1.53-1.26,1.53a6.79,6.79,0,0,1-5.7-2.82,24.69,24.69,0,0,1,2.69-10.81,9.27,9.27,0,0,1,5.24-1.94l.19.22a12.19,12.19,0,0,0-4.9,2.43s.41-.22,1.1-.52a14.83,14.83,0,0,1,4.24-1.18,1.87,1.87,0,0,1,.32,0,15.82,15.82,0,0,1,3.78,0A15.63,15.63,0,0,1,40,104.22a12.3,12.3,0,0,0-4.66-2.35l.26-.3a9.23,9.23,0,0,1,5.24,1.94,24.69,24.69,0,0,1,2.69,10.81,6.85,6.85,0,0,1-5.7,2.8Zm28.23-16.21H59.86v7L64,111.61v-6.77H66.2c1.4,0,2.09.67,2.09,1.76v5.18c0,1.08-.65,1.81-2.09,1.81H59.84v3.94h6.21c3.33,0,6.45-1.64,6.45-5.46V106.5C72.52,102.61,69.4,100.91,66.07,100.91ZM98.6,112.07v-5.72c0-2,3.7-2.52,4.83-.46l3.42-1.39a6.17,6.17,0,0,0-5.84-3.81c-3.32,0-6.61,1.92-6.61,5.66v5.72c0,3.78,3.29,5.67,6.54,5.67a6.68,6.68,0,0,0,6-3.72l-3.66-1.68c-.9,2.3-4.66,1.74-4.66-.27Zm-11.31-4.93c-1.29-.28-2.15-.75-2.21-1.55.08-1.93,3-2,4.79-.15l2.75-2.12A6.83,6.83,0,0,0,87,100.67c-3,0-6,1.72-6,5s2.43,4.86,5.11,5.28c1.36.18,2.88.72,2.84,1.66-.11,1.78-3.78,1.68-5.44-.34l-2.66,2.49a7.29,7.29,0,0,0,5.65,3c3,0,6.43-1.76,6.56-5,.19-4.06-2.77-5.09-5.72-5.63ZM74.76,117.52H79V100.91H74.76Zm70.62-16.61h-6.21v7l4.14,3.72v-6.77h2.2c1.4,0,2.1.67,2.1,1.76v5.18c0,1.08-.66,1.81-2.1,1.81h-6.35v3.94h6.22c3.33,0,6.45-1.64,6.45-5.46V106.5C151.83,102.61,148.71,100.91,145.38,100.91Zm-30.46-.22c-3.44,0-6.86,1.87-6.86,5.7v5.67c0,3.79,3.44,5.7,6.9,5.7s6.86-1.91,6.86-5.7v-5.67C121.82,102.58,118.36,100.69,114.92,100.69Zm2.7,11.37c0,1.19-1.35,1.81-2.68,1.81s-2.69-.58-2.69-1.81v-5.67c0-1.21,1.31-1.87,2.62-1.87s2.75.58,2.75,1.87Zm19.24-5.67c-.1-3.89-2.75-5.46-6.17-5.46h-6.64v16.6h4.24v-5.27H129l3.85,5.27h5.24l-4.53-5.7C135.6,111.2,136.86,109.46,136.86,106.39Zm-6.1,2.24h-2.47v-3.79h2.47A1.9,1.9,0,1,1,130.76,108.63Z"/><path d="M653.94,197.45a18.77,18.77,0,0,1-18.75-18.75V46.7A18.77,18.77,0,0,1,653.94,28h132A18.77,18.77,0,0,1,804.69,46.7v132a18.77,18.77,0,0,1-18.75,18.75Zm0-168A17.27,17.27,0,0,0,636.69,46.7v132A17.27,17.27,0,0,0,653.94,196h132a17.27,17.27,0,0,0,17.25-17.25V46.7a17.27,17.27,0,0,0-17.25-17.25Z"/><path class="cls-1" d="M785.94,28.2a18.52,18.52,0,0,1,18.5,18.5v132a18.52,18.52,0,0,1-18.5,18.5h-132a18.52,18.52,0,0,1-18.5-18.5V46.7a18.52,18.52,0,0,1,18.5-18.5h132m-132,168h132a17.52,17.52,0,0,0,17.5-17.5V46.7a17.52,17.52,0,0,0-17.5-17.5h-132a17.52,17.52,0,0,0-17.5,17.5v132a17.52,17.52,0,0,0,17.5,17.5m132-168.5h-132a19,19,0,0,0-19,19v132a19,19,0,0,0,19,19h132a19,19,0,0,0,19-19V46.7a19,19,0,0,0-19-19Zm-132,168a17,17,0,0,1-17-17V46.7a17,17,0,0,1,17-17h132a17,17,0,0,1,17,17v132a17,17,0,0,1-17,17Z"/><polygon points="681.14 118.56 681.14 113.98 676.5 105.28 680.28 105.28 682.87 110.81 685.5 105.28 689.3 105.28 684.58 114.02 684.58 118.56 681.14 118.56"/><path class="cls-1" d="M688.88,105.53,684.33,114v4.35h-2.94v-4.39l-4.48-8.39h3.21l2.75,5.87,2.79-5.87h3.22m.84-.5h-4.38l-.13.29-2.34,4.91-2.3-4.91-.14-.29h-4.35l.39.74,4.42,8.28v4.76h3.94v-4.73l4.49-8.31.4-.74Z"/><path d="M692.66,118.74a5.85,5.85,0,0,1-2.24-.41,4.81,4.81,0,0,1-2.72-2.78,5.76,5.76,0,0,1,0-3.9,4.81,4.81,0,0,1,2.71-2.79,5.75,5.75,0,0,1,2.25-.43,5.63,5.63,0,0,1,2.24.43,5,5,0,0,1,1.67,1.13,5.07,5.07,0,0,1,1,1.65,5.41,5.41,0,0,1,.36,2,5.61,5.61,0,0,1-.35,2,4.79,4.79,0,0,1-1,1.65,5.12,5.12,0,0,1-1.68,1.13A5.9,5.9,0,0,1,692.66,118.74Zm0-7.36a1.72,1.72,0,0,0-1.31.6,2.17,2.17,0,0,0-.4.7,3,3,0,0,0-.14.92,2.39,2.39,0,0,0,.53,1.62,1.66,1.66,0,0,0,1.32.59,1.69,1.69,0,0,0,.72-.15,1.82,1.82,0,0,0,.58-.45,2.06,2.06,0,0,0,.39-.7,2.71,2.71,0,0,0,.15-.91A2.4,2.4,0,0,0,694,112,1.65,1.65,0,0,0,692.66,111.38Z"/><path class="cls-1" d="M692.66,108.68a5.3,5.3,0,0,1,2.14.41,4.76,4.76,0,0,1,1.59,1.08,4.71,4.71,0,0,1,1,1.56,5.16,5.16,0,0,1,.34,1.87,5.32,5.32,0,0,1-.33,1.86,4.44,4.44,0,0,1-1,1.56,4.76,4.76,0,0,1-1.6,1.08,6.12,6.12,0,0,1-4.3,0,4.62,4.62,0,0,1-1.59-1.08,4.44,4.44,0,0,1-1-1.56,5.32,5.32,0,0,1-.33-1.86,5.38,5.38,0,0,1,.33-1.87,4.53,4.53,0,0,1,1-1.56,4.76,4.76,0,0,1,1.59-1.08,5.42,5.42,0,0,1,2.15-.41m0,7.38a1.9,1.9,0,0,0,.83-.18,2.14,2.14,0,0,0,.66-.5,2.68,2.68,0,0,0,.44-.78,3,3,0,0,0,.16-1,2.61,2.61,0,0,0-.59-1.79,2,2,0,0,0-2.33-.5,2.07,2.07,0,0,0-.67.5,2.42,2.42,0,0,0-.44.79,2.91,2.91,0,0,0-.16,1,2.65,2.65,0,0,0,.59,1.79,1.93,1.93,0,0,0,1.51.67m0-7.88a5.9,5.9,0,0,0-2.35.45,5.07,5.07,0,0,0-1.75,1.19,4.93,4.93,0,0,0-1.09,1.74,5.93,5.93,0,0,0,0,4.07,4.93,4.93,0,0,0,1.09,1.74,5.21,5.21,0,0,0,1.76,1.19,6.61,6.61,0,0,0,4.69,0,5.21,5.21,0,0,0,1.76-1.19,5.13,5.13,0,0,0,1.09-1.74,5.79,5.79,0,0,0,.36-2,5.91,5.91,0,0,0-.37-2,5.15,5.15,0,0,0-2.85-2.92,5.78,5.78,0,0,0-2.34-.45Zm0,7.38a1.43,1.43,0,0,1-1.13-.5,2.1,2.1,0,0,1-.47-1.46,2.55,2.55,0,0,1,.13-.84,2,2,0,0,1,.35-.62,1.43,1.43,0,0,1,1.12-.51,1.41,1.41,0,0,1,1.12.51,2.09,2.09,0,0,1,.47,1.46,2.45,2.45,0,0,1-.13.83,2.18,2.18,0,0,1-.35.62,1.38,1.38,0,0,1-.49.38,1.41,1.41,0,0,1-.62.13Z"/><path d="M702,118.74a2.9,2.9,0,0,1-2.39-1,4.34,4.34,0,0,1-.81-2.83v-6.3h3.38v5.67a1.9,1.9,0,0,0,.3,1.17.88.88,0,0,0,.77.36,2,2,0,0,0,1-.27,2.4,2.4,0,0,0,.83-.91v-6h3.38v6.46c0,.32.06.43.08.45a.41.41,0,0,0,.31.11l.22,0v2.85l-.2,0a6.84,6.84,0,0,1-.73.12l-.54,0c-1.44,0-1.89-.76-2-1.4a4,4,0,0,1-1.32,1A5.34,5.34,0,0,1,702,118.74Z"/><path class="cls-1" d="M708.2,108.86v6.21a1,1,0,0,0,.13.6.64.64,0,0,0,.48.21v2.43a6.88,6.88,0,0,1-.7.12l-.53,0c-1,0-1.62-.41-1.76-1.21l-.05-.58a3.93,3.93,0,0,1-1.61,1.38,5.21,5.21,0,0,1-2.16.44,2.67,2.67,0,0,1-2.2-.91,4.09,4.09,0,0,1-.75-2.67v-6h2.88v5.42a2.14,2.14,0,0,0,.35,1.32,1.12,1.12,0,0,0,1,.46,2.26,2.26,0,0,0,1.11-.3,2.68,2.68,0,0,0,1-1.07v-5.83h2.88m.5-.5h-3.88v6.2a2.09,2.09,0,0,1-.7.76,1.76,1.76,0,0,1-.87.24.65.65,0,0,1-.57-.25,1.7,1.7,0,0,1-.25-1v-5.92h-3.88v6.55a4.61,4.61,0,0,0,.86,3A3.2,3.2,0,0,0,702,119a5.66,5.66,0,0,0,2.36-.48,4.3,4.3,0,0,0,1.1-.73,2,2,0,0,0,2.12,1.18l.57,0a7.14,7.14,0,0,0,.76-.13l.4-.09v-3.28l-.45-.05a.25.25,0,0,1-.14,0,1.58,1.58,0,0,1,0-.28v-6.71Z"/><path d="M710.18,118.56v-10h3.15v1.29a4.17,4.17,0,0,1,.85-.83,3.12,3.12,0,0,1,1.77-.6h.29l.23,0,.2,0v3h-.24a5.4,5.4,0,0,0-1.81.32,2.08,2.08,0,0,0-1.06.81v5.85Z"/><path class="cls-1" d="M716.24,108.72a.55.55,0,0,1,.18,0v2.59a5.43,5.43,0,0,0-1.89.34,2.33,2.33,0,0,0-1.22,1v5.67h-2.88v-9.45h2.64v1.91a4,4,0,0,1,1.26-1.49,2.86,2.86,0,0,1,1.62-.56h.29m0-.5H716a3.33,3.33,0,0,0-1.91.65,4.12,4.12,0,0,0-.47.38v-.89h-3.64v10.45h3.88v-6a1.84,1.84,0,0,1,.9-.65,4.92,4.92,0,0,1,1.72-.31h.49v-3.5l-.4-.07a1.33,1.33,0,0,0-.28,0Z"/><path d="M724.07,118.74a4,4,0,0,1-1.39-.24,3.43,3.43,0,0,1-1.12-.68,3.3,3.3,0,0,1-.74-1,3.15,3.15,0,0,1-.27-1.3,3.1,3.1,0,0,1,.32-1.4,3.31,3.31,0,0,1,.91-1.07,4.64,4.64,0,0,1,1.35-.69,5.81,5.81,0,0,1,1.72-.24,6.67,6.67,0,0,1,1.19.1,4.22,4.22,0,0,1,.68.17v-.06c0-1-.52-1.39-1.64-1.39a3.85,3.85,0,0,0-1.39.25,6.54,6.54,0,0,0-1.42.75l-.24.17L721,109.82l.19-.12a7.45,7.45,0,0,1,4.22-1.27,5.16,5.16,0,0,1,3.47,1.07,3.93,3.93,0,0,1,1.26,3.14v2.43c0,.32.06.43.08.45a.45.45,0,0,0,.31.11l.22,0v2.85l-.19,0a5.4,5.4,0,0,1-.72.12l-.58,0a2.26,2.26,0,0,1-1.37-.37,1.57,1.57,0,0,1-.6-1,4.4,4.4,0,0,1-1.22.89A4.28,4.28,0,0,1,724.07,118.74Zm1.26-4.55a2,2,0,0,0-1.16.31.87.87,0,0,0-.1,1.4,1.29,1.29,0,0,0,.85.27,2.52,2.52,0,0,0,.82-.14,2.14,2.14,0,0,0,.65-.38.72.72,0,0,0,.33-.51v-.72c-.19-.06-.4-.11-.61-.16A4.42,4.42,0,0,0,725.33,114.19Z"/><path class="cls-1" d="M725.37,108.68a4.92,4.92,0,0,1,3.31,1,3.68,3.68,0,0,1,1.17,3v2.43a1,1,0,0,0,.14.6.61.61,0,0,0,.47.21v2.43a5.16,5.16,0,0,1-.68.12l-.56,0a2,2,0,0,1-1.22-.32,1.43,1.43,0,0,1-.53-.89l-.05-.43a4.34,4.34,0,0,1-1.5,1.24,4.09,4.09,0,0,1-1.85.43,3.7,3.7,0,0,1-1.3-.22,3,3,0,0,1-1-.63,3.15,3.15,0,0,1-.68-1,2.76,2.76,0,0,1-.25-1.19,2.74,2.74,0,0,1,1.13-2.27,4.17,4.17,0,0,1,1.28-.65,5.29,5.29,0,0,1,1.64-.23,6.23,6.23,0,0,1,1.15.1,3.58,3.58,0,0,1,1,.29v-.43c0-1.09-.63-1.64-1.89-1.64a4.21,4.21,0,0,0-1.47.26,7.16,7.16,0,0,0-1.48.79l-.85-1.8a7.37,7.37,0,0,1,2-.92,7.1,7.1,0,0,1,2.14-.31m-.45,7.74a2.61,2.61,0,0,0,.91-.16,2.27,2.27,0,0,0,.73-.43.92.92,0,0,0,.41-.69v-.9a4.66,4.66,0,0,0-.82-.22,4.06,4.06,0,0,0-.82-.08,2.19,2.19,0,0,0-1.3.36,1.1,1.1,0,0,0-.52.93,1.09,1.09,0,0,0,.4.86,1.52,1.52,0,0,0,1,.33m.45-8.24a7.83,7.83,0,0,0-2.29.33,8.15,8.15,0,0,0-2.07,1l-.36.24.18.39.85,1.8.24.53.49-.33a6.82,6.82,0,0,1,1.37-.73,3.78,3.78,0,0,1,1.3-.23c1,0,1.31.39,1.37.86l-.36-.08a7.24,7.24,0,0,0-1.24-.1,6,6,0,0,0-1.79.25,4.7,4.7,0,0,0-1.43.73,3.4,3.4,0,0,0-1,1.16,3.17,3.17,0,0,0-.35,1.51,3.44,3.44,0,0,0,.29,1.4,3.55,3.55,0,0,0,2,1.85,4.26,4.26,0,0,0,1.48.25,4.66,4.66,0,0,0,2.07-.48,4.73,4.73,0,0,0,1-.67,1.81,1.81,0,0,0,.55.7,2.46,2.46,0,0,0,1.53.42l.6,0a6.38,6.38,0,0,0,.76-.13l.38-.09v-3.28l-.45-.05a.28.28,0,0,1-.14,0,1.58,1.58,0,0,1,0-.28v-2.43a4.18,4.18,0,0,0-1.34-3.33,5.43,5.43,0,0,0-3.64-1.13Zm-.45,7.74a1.05,1.05,0,0,1-.69-.21.59.59,0,0,1-.22-.48.6.6,0,0,1,.3-.52,1.76,1.76,0,0,1,1-.27,3.9,3.9,0,0,1,.73.07l.41.1v.53c0,.08-.08.18-.22.29a1.53,1.53,0,0,1-.6.36,2,2,0,0,1-.73.13Z"/><path d="M731.69,122.4V108.61h3v1a3.79,3.79,0,0,1,2.92-1.23,4.4,4.4,0,0,1,1.86.4,4.81,4.81,0,0,1,1.47,1.1,5.28,5.28,0,0,1,1,1.63,5.68,5.68,0,0,1,.35,2,6.37,6.37,0,0,1-.32,2,5.07,5.07,0,0,1-.89,1.64,4.23,4.23,0,0,1-1.38,1.1,3.82,3.82,0,0,1-1.75.4,4,4,0,0,1-2-.48,3.15,3.15,0,0,1-.85-.68v4.82Zm3.38-8a2.93,2.93,0,0,0,.78,1,1.68,1.68,0,0,0,1.09.43,1.53,1.53,0,0,0,.74-.18,2,2,0,0,0,.6-.48,2.3,2.3,0,0,0,.4-.72,2.91,2.91,0,0,0,.14-.89,2.45,2.45,0,0,0-.16-.87,2.1,2.1,0,0,0-.42-.69,1.79,1.79,0,0,0-.63-.44,2,2,0,0,0-.81-.16,1.84,1.84,0,0,0-1,.31,2,2,0,0,0-.72.79Z"/><path class="cls-1" d="M737.61,108.68a4.07,4.07,0,0,1,1.75.38,4.2,4.2,0,0,1,1.39,1,4.75,4.75,0,0,1,.92,1.54,5.53,5.53,0,0,1,.33,1.92,6.15,6.15,0,0,1-.3,2,5.09,5.09,0,0,1-.85,1.56,3.83,3.83,0,0,1-1.3,1,3.5,3.5,0,0,1-1.64.38A3.75,3.75,0,0,1,736,118a3.08,3.08,0,0,1-1.22-1.26v5.37h-2.88V108.86h2.5v1.53a3.75,3.75,0,0,1,1.31-1.26,3.66,3.66,0,0,1,1.86-.45m-.67,7.38a1.79,1.79,0,0,0,.86-.21,2.19,2.19,0,0,0,.67-.54,2.44,2.44,0,0,0,.44-.81,2.76,2.76,0,0,0,.16-1,2.69,2.69,0,0,0-.17-1,2.84,2.84,0,0,0-.47-.77,2.16,2.16,0,0,0-.72-.5,2.31,2.31,0,0,0-.91-.18,2.09,2.09,0,0,0-1.14.35,2.21,2.21,0,0,0-.84,1v1.94a3,3,0,0,0,.87,1.21,1.94,1.94,0,0,0,1.25.48m.67-7.88a4.18,4.18,0,0,0-2.11.52,4.24,4.24,0,0,0-.56.38v-.72h-3.5v14.29h3.88v-4.5a4.07,4.07,0,0,0,.48.33,4.23,4.23,0,0,0,2.11.51,4.08,4.08,0,0,0,1.87-.43,4.4,4.4,0,0,0,1.45-1.16,5.48,5.48,0,0,0,.94-1.72,6.59,6.59,0,0,0,.33-2.12,6,6,0,0,0-.36-2.09,5.51,5.51,0,0,0-1-1.71,4.86,4.86,0,0,0-1.54-1.15,4.62,4.62,0,0,0-2-.43Zm-2.29,4.37a1.87,1.87,0,0,1,.6-.65,1.64,1.64,0,0,1,.88-.27,1.87,1.87,0,0,1,.71.14,1.55,1.55,0,0,1,.55.38,2.07,2.07,0,0,1,.37.61,2.16,2.16,0,0,1,.14.78,2.75,2.75,0,0,1-.13.81,1.84,1.84,0,0,1-.35.63,1.68,1.68,0,0,1-.53.43,1.26,1.26,0,0,1-.62.15,1.43,1.43,0,0,1-.93-.37,2.43,2.43,0,0,1-.69-.92v-1.72Z"/><path d="M743.21,122.4V108.61h3v1a3.79,3.79,0,0,1,2.92-1.23,4.43,4.43,0,0,1,1.86.4,4.69,4.69,0,0,1,1.47,1.1,5.17,5.17,0,0,1,1,1.63,5.68,5.68,0,0,1,.35,2,6.37,6.37,0,0,1-.32,2,5.07,5.07,0,0,1-.89,1.64,4.23,4.23,0,0,1-1.38,1.1,3.82,3.82,0,0,1-1.75.4,4,4,0,0,1-2-.48,3.31,3.31,0,0,1-.85-.68v4.82Zm3.38-8a2.93,2.93,0,0,0,.78,1,1.68,1.68,0,0,0,1.09.43,1.5,1.5,0,0,0,.74-.18,2,2,0,0,0,.6-.48,2.3,2.3,0,0,0,.4-.72,2.91,2.91,0,0,0,.14-.89,2.25,2.25,0,0,0-.16-.87,2.1,2.1,0,0,0-.42-.69,1.79,1.79,0,0,0-.63-.44,2,2,0,0,0-.81-.16,1.81,1.81,0,0,0-1,.31,2,2,0,0,0-.72.79Z"/><path class="cls-1" d="M749.13,108.68a4.07,4.07,0,0,1,1.75.38,4.2,4.2,0,0,1,1.39,1,4.93,4.93,0,0,1,.92,1.54,5.53,5.53,0,0,1,.33,1.92,5.88,5.88,0,0,1-.31,2,4.87,4.87,0,0,1-.84,1.56,3.83,3.83,0,0,1-1.3,1,3.5,3.5,0,0,1-1.64.38,3.72,3.72,0,0,1-1.87-.45,3.08,3.08,0,0,1-1.22-1.26v5.37h-2.88V108.86H746v1.53a3.75,3.75,0,0,1,1.31-1.26,3.66,3.66,0,0,1,1.86-.45m-.67,7.38a1.79,1.79,0,0,0,.86-.21,2.19,2.19,0,0,0,.67-.54,2.44,2.44,0,0,0,.44-.81,3,3,0,0,0,.16-1,2.69,2.69,0,0,0-.17-1,2.61,2.61,0,0,0-.47-.77,2.16,2.16,0,0,0-.72-.5,2.31,2.31,0,0,0-.91-.18,2.09,2.09,0,0,0-1.14.35,2.21,2.21,0,0,0-.84,1v1.94a3,3,0,0,0,.87,1.21,1.94,1.94,0,0,0,1.25.48m.67-7.88a4.18,4.18,0,0,0-2.11.52,4.24,4.24,0,0,0-.56.38v-.72H743v14.29h3.88v-4.5a4.07,4.07,0,0,0,.48.33,4.23,4.23,0,0,0,2.11.51,4.11,4.11,0,0,0,1.87-.43,4.4,4.4,0,0,0,1.45-1.16,5.39,5.39,0,0,0,.94-1.72,6.59,6.59,0,0,0,.33-2.12,6,6,0,0,0-.36-2.09,5.51,5.51,0,0,0-1-1.71,4.86,4.86,0,0,0-1.54-1.15,4.62,4.62,0,0,0-2-.43Zm-2.29,4.37a1.87,1.87,0,0,1,.6-.65,1.64,1.64,0,0,1,.88-.27,1.83,1.83,0,0,1,.71.14,1.55,1.55,0,0,1,.55.38,2.07,2.07,0,0,1,.37.61,2.21,2.21,0,0,1,.14.78,2.75,2.75,0,0,1-.13.81,1.93,1.93,0,0,1-.35.63,1.68,1.68,0,0,1-.53.43,1.26,1.26,0,0,1-.62.15,1.43,1.43,0,0,1-.93-.37,2.43,2.43,0,0,1-.69-.92v-1.72Z"/><path d="M758.71,118.74a7.68,7.68,0,0,1-2.46-.4,5.61,5.61,0,0,1-2.07-1.18L754,117l1.26-2.17.23.15a8.85,8.85,0,0,0,1.63.89,4.09,4.09,0,0,0,1.48.31,1.32,1.32,0,0,0,.73-.16.41.41,0,0,0,.19-.37.42.42,0,0,0-.26-.38,5.58,5.58,0,0,0-1.3-.45c-.64-.19-1.19-.36-1.63-.53a4.74,4.74,0,0,1-1.13-.6,2,2,0,0,1-.68-.8,2.52,2.52,0,0,1-.2-1,3.16,3.16,0,0,1,1.17-2.52,4,4,0,0,1,1.28-.69,5,5,0,0,1,1.58-.25,6.89,6.89,0,0,1,2.06.3,5.19,5.19,0,0,1,1.89,1.1l.16.14-1.37,2.12-.22-.14a7.39,7.39,0,0,0-1.39-.79,3.17,3.17,0,0,0-1.13-.23,1.38,1.38,0,0,0-.67.15.44.44,0,0,0-.2.39.39.39,0,0,0,.23.38,5.58,5.58,0,0,0,1.24.41,13.77,13.77,0,0,1,1.73.55,4.88,4.88,0,0,1,1.19.63,2.36,2.36,0,0,1,.7.86,2.65,2.65,0,0,1,.22,1.13,3,3,0,0,1-1.13,2.43A4.68,4.68,0,0,1,758.71,118.74Z"/><path class="cls-1" d="M758.38,108.68a6.74,6.74,0,0,1,2,.29,5,5,0,0,1,1.79,1L761,111.74a7.79,7.79,0,0,0-1.43-.81,3.29,3.29,0,0,0-1.23-.25,1.49,1.49,0,0,0-.79.19.65.65,0,0,0-.33.6.66.66,0,0,0,.35.6,6.31,6.31,0,0,0,1.31.43,16.58,16.58,0,0,1,1.7.54,4.74,4.74,0,0,1,1.13.6,2.19,2.19,0,0,1,.63.77,2.44,2.44,0,0,1,.19,1,2.67,2.67,0,0,1-1,2.23,4.39,4.39,0,0,1-2.83.83,7.45,7.45,0,0,1-2.37-.39,5.33,5.33,0,0,1-2-1.12l1-1.76a8.52,8.52,0,0,0,1.69.91,4.18,4.18,0,0,0,1.57.33,1.65,1.65,0,0,0,.87-.2.64.64,0,0,0,.3-.58.68.68,0,0,0-.38-.6,6.23,6.23,0,0,0-1.36-.48c-.64-.18-1.18-.35-1.61-.52a4.51,4.51,0,0,1-1.08-.56,1.78,1.78,0,0,1-.59-.7,2.2,2.2,0,0,1-.18-.93,3,3,0,0,1,.29-1.32,3,3,0,0,1,.79-1,3.83,3.83,0,0,1,1.2-.64,4.54,4.54,0,0,1,1.5-.24m0-.5a5.25,5.25,0,0,0-1.66.26,4.24,4.24,0,0,0-1.36.74,3.49,3.49,0,0,0-.92,1.17,3.44,3.44,0,0,0-.34,1.54,2.73,2.73,0,0,0,.23,1.14,2.27,2.27,0,0,0,.75.9,5.26,5.26,0,0,0,1.19.62q.68.26,1.65.54a5.5,5.5,0,0,1,1.24.42c.14.08.14.14.14.17s0,.12-.08.16a1.09,1.09,0,0,1-.59.12,3.85,3.85,0,0,1-1.39-.29,7.58,7.58,0,0,1-1.58-.87l-.45-.3-.27.46-1,1.77-.21.35.3.27a6,6,0,0,0,2.16,1.23,8.17,8.17,0,0,0,2.53.41,4.93,4.93,0,0,0,3.14-.93,3.2,3.2,0,0,0,1.23-2.63,2.93,2.93,0,0,0-.24-1.23,2.55,2.55,0,0,0-.78-1,5,5,0,0,0-1.25-.67,16.89,16.89,0,0,0-1.75-.55,5.78,5.78,0,0,1-1.19-.39c-.08,0-.1-.08-.1-.16s0-.15.08-.17a1.08,1.08,0,0,1,.54-.12,2.7,2.7,0,0,1,1,.22,7,7,0,0,1,1.34.75l.43.3.27-.44,1.12-1.72.23-.37-.32-.28a5.49,5.49,0,0,0-2-1.15,7.43,7.43,0,0,0-2.14-.31Z"/><path d="M378,244.36a16.65,16.65,0,0,1-2.31-.17,17.22,17.22,0,0,1-2.31-.51,17.65,17.65,0,0,1-2.18-.79,12.42,12.42,0,0,1-2-1.08l-.36-.25,2.56-5.09.49.61a4.49,4.49,0,0,0,.61.42,9.62,9.62,0,0,0,1.45.75,15,15,0,0,0,2,.68,8.1,8.1,0,0,0,2.13.29c1.94,0,1.94-.72,1.94-1a.75.75,0,0,0-.22-.57,3,3,0,0,0-.86-.56,11.54,11.54,0,0,0-1.46-.52c-.59-.16-1.23-.35-1.92-.56a16.29,16.29,0,0,1-2.46-.94,6.78,6.78,0,0,1-1.79-1.22,4.63,4.63,0,0,1-1.1-1.67,5.83,5.83,0,0,1-.36-2.13,6.85,6.85,0,0,1,.64-3,6.52,6.52,0,0,1,1.73-2.19,7.48,7.48,0,0,1,2.51-1.34,9.86,9.86,0,0,1,3-.44,11.75,11.75,0,0,1,2.14.2,17,17,0,0,1,2,.52,13.92,13.92,0,0,1,1.79.73c.54.27,1,.53,1.5.8l.41.24-2.61,4.93-.47-.63h0a4.92,4.92,0,0,0-.45-.29,10,10,0,0,0-1.2-.62,12.14,12.14,0,0,0-1.58-.56,5.94,5.94,0,0,0-1.66-.23c-2,0-2,.8-2,1.15a.88.88,0,0,0,.15.53,2,2,0,0,0,.62.46,6.15,6.15,0,0,0,1.22.46l1.81.5a26.16,26.16,0,0,1,2.63.87,7.76,7.76,0,0,1,2.09,1.24,5.2,5.2,0,0,1,1.36,1.84,7.08,7.08,0,0,1-.22,5.63,5.72,5.72,0,0,1-1.82,2A7.38,7.38,0,0,1,380.9,244,12.15,12.15,0,0,1,378,244.36Z"/><path class="cls-1" d="M377.7,223.59a10.68,10.68,0,0,1,2,.19,14.49,14.49,0,0,1,1.94.51,14,14,0,0,1,1.72.7q.8.39,1.47.78l-2,3.81a2.25,2.25,0,0,0-.59-.42,9.11,9.11,0,0,0-1.26-.64,11.36,11.36,0,0,0-1.65-.59,6.5,6.5,0,0,0-1.79-.25q-2.46,0-2.46,1.65a1.32,1.32,0,0,0,.26.84,2.44,2.44,0,0,0,.79.6,6.73,6.73,0,0,0,1.3.49l1.82.5a22.7,22.7,0,0,1,2.57.86,6.84,6.84,0,0,1,2,1.15,4.62,4.62,0,0,1,1.23,1.66,5.77,5.77,0,0,1,.43,2.35,5.94,5.94,0,0,1-.63,2.85,5.27,5.27,0,0,1-1.66,1.87,7,7,0,0,1-2.38,1,12.13,12.13,0,0,1-2.77.32,15.68,15.68,0,0,1-2.24-.17,15.13,15.13,0,0,1-2.24-.49,16.7,16.7,0,0,1-2.12-.77,12.19,12.19,0,0,1-1.89-1l2-4a4,4,0,0,0,.73.53,10.1,10.1,0,0,0,1.52.79,17.14,17.14,0,0,0,2,.7,8.81,8.81,0,0,0,2.27.31c1.63,0,2.44-.5,2.44-1.49a1.22,1.22,0,0,0-.37-.92,3.33,3.33,0,0,0-1-.66,10.09,10.09,0,0,0-1.52-.55c-.59-.16-1.23-.35-1.92-.56a16.31,16.31,0,0,1-2.38-.91,6,6,0,0,1-1.66-1.13,4,4,0,0,1-1-1.48,5.37,5.37,0,0,1-.33-2,6.31,6.31,0,0,1,.59-2.78,6,6,0,0,1,1.6-2,6.91,6.91,0,0,1,2.34-1.24,9.23,9.23,0,0,1,2.81-.42m0-1a10.33,10.33,0,0,0-3.12.46,8.08,8.08,0,0,0-2.67,1.43,7.17,7.17,0,0,0-1.86,2.36,7.25,7.25,0,0,0-.69,3.22,6.39,6.39,0,0,0,.39,2.31,5.07,5.07,0,0,0,1.22,1.84,7.08,7.08,0,0,0,1.92,1.32,17.21,17.21,0,0,0,2.53,1c.7.21,1.34.4,1.93.56a11.39,11.39,0,0,1,1.39.5,2.72,2.72,0,0,1,.72.45.27.27,0,0,1,.07.22c0,.4-.78.49-1.44.49a7.54,7.54,0,0,1-2-.28,14.5,14.5,0,0,1-1.9-.65,9.66,9.66,0,0,1-1.38-.71c-.35-.22-.48-.32-.52-.35l-.94-1.18-.7,1.39-2,4-.39.78.72.49a12.66,12.66,0,0,0,2.05,1.13,19.12,19.12,0,0,0,2.23.81,17.07,17.07,0,0,0,2.38.52,16.43,16.43,0,0,0,2.39.18,13,13,0,0,0,3-.35,8.14,8.14,0,0,0,2.72-1.18,6.43,6.43,0,0,0,2-2.23,7.7,7.7,0,0,0,.24-6.07,5.68,5.68,0,0,0-1.5-2,7.91,7.91,0,0,0-2.22-1.32,25,25,0,0,0-2.69-.89l-1.81-.5a6,6,0,0,1-1.12-.42,1.52,1.52,0,0,1-.46-.33.41.41,0,0,1,0-.22c0-.21,0-.65,1.46-.65a5.74,5.74,0,0,1,1.52.21,12.79,12.79,0,0,1,1.52.54,9.9,9.9,0,0,1,1.14.58,2.86,2.86,0,0,1,.36.24l.9,1.19.74-1.39,2-3.81.45-.85-.83-.48c-.46-.27-1-.55-1.53-.82a14.86,14.86,0,0,0-1.85-.75,16.34,16.34,0,0,0-2.06-.54,11.87,11.87,0,0,0-2.23-.21Z"/><path d="M387.28,250.1V228.44h4.89v1.46a6.69,6.69,0,0,1,1.28-1,6.25,6.25,0,0,1,3.15-.76,6.83,6.83,0,0,1,2.94.63,7.2,7.2,0,0,1,2.32,1.73,8,8,0,0,1,1.52,2.57,8.8,8.8,0,0,1,.55,3.15,10.15,10.15,0,0,1-.5,3.22A8.36,8.36,0,0,1,402,242a6.66,6.66,0,0,1-2.18,1.74,6.1,6.1,0,0,1-2.77.65,6.27,6.27,0,0,1-3.16-.77,5.3,5.3,0,0,1-1.16-.88v7.33Zm5.48-12.7a4.07,4.07,0,0,0,1.18,1.59,2.45,2.45,0,0,0,1.62.65,2.24,2.24,0,0,0,1.1-.27,3.09,3.09,0,0,0,1.49-1.81,4,4,0,0,0,.22-1.34,3.52,3.52,0,0,0-.24-1.32,3,3,0,0,0-.63-1,2.56,2.56,0,0,0-.94-.67,3.12,3.12,0,0,0-1.22-.24,2.79,2.79,0,0,0-1.51.47,3.09,3.09,0,0,0-1.07,1.17Z"/><path class="cls-1" d="M396.6,228.66a6.34,6.34,0,0,1,2.73.58,6.86,6.86,0,0,1,2.16,1.61,7.6,7.6,0,0,1,1.42,2.41,8.37,8.37,0,0,1,.52,3,9.44,9.44,0,0,1-.48,3.06,7.51,7.51,0,0,1-1.31,2.42,6.08,6.08,0,0,1-2,1.61,5.63,5.63,0,0,1-2.55.59,5.86,5.86,0,0,1-2.91-.7,4.85,4.85,0,0,1-1.9-2v8.34h-4.48V228.94h3.89v2.38a5.84,5.84,0,0,1,2-2,5.69,5.69,0,0,1,2.9-.7m-1,11.48a2.7,2.7,0,0,0,1.33-.33,3.57,3.57,0,0,0,1.05-.85,3.8,3.8,0,0,0,.69-1.25,4.61,4.61,0,0,0,.24-1.49,4,4,0,0,0-.27-1.5,3.67,3.67,0,0,0-.73-1.19,3.12,3.12,0,0,0-1.12-.79,3.69,3.69,0,0,0-1.41-.28,3.29,3.29,0,0,0-1.78.55,3.5,3.5,0,0,0-1.3,1.47v3a4.59,4.59,0,0,0,1.36,1.88,3,3,0,0,0,1.94.76m1-12.48a6.77,6.77,0,0,0-3.4.83,6,6,0,0,0-.53.34v-.89h-5.89V250.6h6.48v-6.77c.13.09.27.17.41.25a6.72,6.72,0,0,0,3.4.84,6.65,6.65,0,0,0,3-.7,7.07,7.07,0,0,0,2.34-1.87,8.47,8.47,0,0,0,1.49-2.73,10.55,10.55,0,0,0,.53-3.38,9.36,9.36,0,0,0-.58-3.33,8.51,8.51,0,0,0-1.62-2.72,7.64,7.64,0,0,0-2.47-1.85,7.44,7.44,0,0,0-3.16-.68Zm-3.34,7.07a2.53,2.53,0,0,1,.84-.88,2.26,2.26,0,0,1,1.24-.39,2.65,2.65,0,0,1,1,.2,2.42,2.42,0,0,1,.78.54,2.76,2.76,0,0,1,.53.88,3.17,3.17,0,0,1,.2,1.14,3.84,3.84,0,0,1-.19,1.18,3,3,0,0,1-.5.92,2.47,2.47,0,0,1-.76.61,1.77,1.77,0,0,1-.86.21,2,2,0,0,1-1.3-.53,3.48,3.48,0,0,1-1-1.31v-2.57Z"/><path d="M412.73,244.42a9.34,9.34,0,0,1-3.51-.64,8.1,8.1,0,0,1-2.66-1.75,7.68,7.68,0,0,1-1.66-2.57,8.14,8.14,0,0,1-.57-3,8.93,8.93,0,0,1,.57-3.19,7.6,7.6,0,0,1,4.29-4.44,9.23,9.23,0,0,1,3.54-.65,9.09,9.09,0,0,1,3.52.65,7.93,7.93,0,0,1,2.63,1.78,7.66,7.66,0,0,1,1.64,2.59,8.77,8.77,0,0,1,.55,3.06q0,.42,0,.81a6.13,6.13,0,0,1-.09.72l-.08.4h-10.7a2.33,2.33,0,0,0,.81,1.36,2.92,2.92,0,0,0,1.89.67,3.61,3.61,0,0,0,1.65-.42,1.94,1.94,0,0,0,1-1l.16-.42,4.83,1.35-.27.54a7.35,7.35,0,0,1-2.88,3A8.86,8.86,0,0,1,412.73,244.42Zm2.52-10a2.73,2.73,0,0,0-.76-1.35,2.57,2.57,0,0,0-1.82-.67,2.49,2.49,0,0,0-1.82.68,2.7,2.7,0,0,0-.75,1.34Z"/><path class="cls-1" d="M412.73,228.66a8.49,8.49,0,0,1,3.33.61,7.29,7.29,0,0,1,2.46,1.67,7,7,0,0,1,1.53,2.42,8.21,8.21,0,0,1,.52,2.88c0,.26,0,.52,0,.77a5,5,0,0,1-.09.66H409.59a3.08,3.08,0,0,0,1.08,2.26,3.45,3.45,0,0,0,2.2.77,4,4,0,0,0,1.89-.48,2.5,2.5,0,0,0,1.22-1.29l3.8,1.07a6.8,6.8,0,0,1-2.69,2.82,8.28,8.28,0,0,1-4.36,1.1,8.69,8.69,0,0,1-3.32-.61,7.33,7.33,0,0,1-2.49-1.63,7.21,7.21,0,0,1-1.56-2.4,7.78,7.78,0,0,1-.53-2.84,8.59,8.59,0,0,1,.53-3A7.46,7.46,0,0,1,406.9,231a7.16,7.16,0,0,1,2.48-1.68,8.63,8.63,0,0,1,3.35-.61m-3.22,6.24h6.32a3.38,3.38,0,0,0-1-2.21,3,3,0,0,0-2.16-.81,3,3,0,0,0-2.17.82,3.4,3.4,0,0,0-1,2.2m3.22-7.24a9.66,9.66,0,0,0-3.74.69,8.23,8.23,0,0,0-2.81,1.91,8.37,8.37,0,0,0-1.75,2.82,9.4,9.4,0,0,0-.6,3.36,8.75,8.75,0,0,0,.6,3.21,8.06,8.06,0,0,0,1.78,2.73,8.4,8.4,0,0,0,2.82,1.86,9.72,9.72,0,0,0,3.7.68,9.36,9.36,0,0,0,4.88-1.24,7.89,7.89,0,0,0,3.07-3.24l.54-1.08-1.17-.33-1.29-.36h2.52l.16-.8c0-.23.07-.49.1-.78s0-.56,0-.85A9,9,0,0,0,421,233a8,8,0,0,0-1.74-2.77,8.34,8.34,0,0,0-2.79-1.89,9.53,9.53,0,0,0-3.72-.69Zm-1.9,6.24a1.92,1.92,0,0,1,.37-.48,2,2,0,0,1,1.47-.54,2,2,0,0,1,1.47.54,2,2,0,0,1,.38.48Zm.06,4.77H415a1.48,1.48,0,0,1-.71.66,2.92,2.92,0,0,1-1.42.37,2.46,2.46,0,0,1-1.58-.56,1.52,1.52,0,0,1-.4-.47Z"/><path d="M429.64,244.42a8.84,8.84,0,0,1-3.52-.68,8.1,8.1,0,0,1-2.65-1.79,7.71,7.71,0,0,1-1.66-2.6,8.61,8.61,0,0,1,0-6.16,7.65,7.65,0,0,1,4.29-4.38,9.23,9.23,0,0,1,3.54-.65,8.5,8.5,0,0,1,4.55,1.15,7.37,7.37,0,0,1,2.78,3l.27.53-5.3,1.6-.21-.32a2.31,2.31,0,0,0-2.12-1.17,2.55,2.55,0,0,0-2,.87,3.5,3.5,0,0,0-.8,2.44,4.23,4.23,0,0,0,.22,1.42,3.17,3.17,0,0,0,.6,1.05,2.62,2.62,0,0,0,.89.66,2.42,2.42,0,0,0,1.06.24,2.56,2.56,0,0,0,1.29-.34,2.14,2.14,0,0,0,.84-.85l.2-.37,5.32,1.64-.25.52a7.16,7.16,0,0,1-2.78,3A8.7,8.7,0,0,1,429.64,244.42Z"/><path class="cls-1" d="M429.64,228.66a7.93,7.93,0,0,1,4.28,1.07,6.93,6.93,0,0,1,2.61,2.82l-4.37,1.31a2.83,2.83,0,0,0-2.55-1.4,3,3,0,0,0-2.34,1,4,4,0,0,0-.94,2.77,4.63,4.63,0,0,0,.26,1.58,3.4,3.4,0,0,0,.7,1.22,3.23,3.23,0,0,0,1,.79,3.06,3.06,0,0,0,2.81-.13,2.62,2.62,0,0,0,1-1l4.37,1.34a6.59,6.59,0,0,1-2.6,2.8,8.06,8.06,0,0,1-4.32,1.1,8.36,8.36,0,0,1-3.32-.63,7.59,7.59,0,0,1-2.49-1.68,7.1,7.1,0,0,1-1.55-2.44,8.06,8.06,0,0,1,0-5.8,7,7,0,0,1,1.54-2.43,7.23,7.23,0,0,1,2.47-1.67,8.63,8.63,0,0,1,3.35-.61m0-1a9.61,9.61,0,0,0-3.73.69,8.06,8.06,0,0,0-4.57,4.66,9.16,9.16,0,0,0,0,6.52,8.06,8.06,0,0,0,1.77,2.77,8.5,8.5,0,0,0,2.82,1.9,10,10,0,0,0,8.56-.52,7.73,7.73,0,0,0,3-3.23l.5-1-1.11-.34-4.37-1.35-.79-.24-.39.74a1.6,1.6,0,0,1-.65.64,1.93,1.93,0,0,1-1,.28,2.07,2.07,0,0,1-.85-.19,2.28,2.28,0,0,1-.73-.54,2.65,2.65,0,0,1-.5-.89,3.77,3.77,0,0,1-.2-1.25,3,3,0,0,1,.68-2.1,2,2,0,0,1,1.6-.71,1.82,1.82,0,0,1,1.7.93l.4.65.74-.22,4.37-1.32,1.13-.34-.53-1.06a8,8,0,0,0-3-3.22,9,9,0,0,0-4.81-1.22Z"/><path d="M443.58,244.42a6.44,6.44,0,0,1-1.72-.23,4,4,0,0,1-1.48-.77,3.62,3.62,0,0,1-1-1.41,5.11,5.11,0,0,1-.37-2v-7.18h-1.87v-4.38H439v-4.68h5.48v4.68h3v4.38h-3v5.64a1,1,0,0,0,.2.67.86.86,0,0,0,.59.2,2.86,2.86,0,0,0,.89-.15,5.4,5.4,0,0,0,.85-.33l.56-.28,1.12,4.58-.39.16a18.35,18.35,0,0,1-2.18.75A9.1,9.1,0,0,1,443.58,244.42Z"/><path class="cls-1" d="M444,224.26v4.68h3v3.38h-3v6.14a1.2,1.2,0,0,0,1.29,1.37,3.53,3.53,0,0,0,1-.17,6.32,6.32,0,0,0,.92-.36l.87,3.55a17.77,17.77,0,0,1-2.11.73,9,9,0,0,1-2.4.34,5.75,5.75,0,0,1-1.58-.21,3.52,3.52,0,0,1-1.3-.68,3,3,0,0,1-.88-1.21,4.55,4.55,0,0,1-.33-1.82v-7.68h-1.87v-3.38h1.87v-4.68H444m1-1h-6.48v4.68h-1.87v5.38h1.87V240a5.59,5.59,0,0,0,.41,2.21,4.11,4.11,0,0,0,1.16,1.6,4.65,4.65,0,0,0,1.67.86,7,7,0,0,0,1.85.25,9.79,9.79,0,0,0,2.67-.38,17.48,17.48,0,0,0,2.23-.77l.78-.33-.2-.83-.87-3.55-.29-1.22-1.12.56a6,6,0,0,1-.78.31,2.54,2.54,0,0,1-.74.12.39.39,0,0,1-.26-.07h0a2,2,0,0,1,0-.3v-5.14h3v-5.38h-3v-4.68Z"/><path d="M454,244.42a6.15,6.15,0,0,1-2.21-.39A5.2,5.2,0,0,1,450,243a5.09,5.09,0,0,1-1.18-1.64,4.93,4.93,0,0,1-.44-2.07,4.84,4.84,0,0,1,.52-2.22,5.11,5.11,0,0,1,1.44-1.71,7.17,7.17,0,0,1,2.14-1.08,8.85,8.85,0,0,1,2.7-.39,10.6,10.6,0,0,1,1.88.16,7.93,7.93,0,0,1,.93.22c0-.93-.33-2-2.44-2a6.08,6.08,0,0,0-2.13.37,11.16,11.16,0,0,0-2.19,1.16l-.48.33L449,230.38l.36-.24a12.29,12.29,0,0,1,3.16-1.49,11.88,11.88,0,0,1,3.47-.49,8.16,8.16,0,0,1,5.48,1.68,6.24,6.24,0,0,1,2,5v3.78c0,.48.09.61.1.62a.65.65,0,0,0,.4.14l.45,0V244l-.39.09a7.73,7.73,0,0,1-1.13.2c-.34,0-.64,0-.91,0a3.63,3.63,0,0,1-2.21-.59,2.63,2.63,0,0,1-.92-1.35,6.78,6.78,0,0,1-1.79,1.27A6.92,6.92,0,0,1,454,244.42Zm2-7.09a3,3,0,0,0-1.75.47,1.22,1.22,0,0,0-.58,1,1.15,1.15,0,0,0,.44.94,1.85,1.85,0,0,0,1.24.41,3.55,3.55,0,0,0,1.25-.23,2.8,2.8,0,0,0,1-.56c.33-.27.49-.49.49-.7v-1.05a7.89,7.89,0,0,0-.87-.21A6.38,6.38,0,0,0,456,237.33Z"/><path class="cls-1" d="M456,228.66a7.7,7.7,0,0,1,5.16,1.56,5.76,5.76,0,0,1,1.82,4.6v3.78a1.53,1.53,0,0,0,.21.93,1,1,0,0,0,.74.33v3.78a8.24,8.24,0,0,1-1.07.18c-.31,0-.6,0-.86,0a3.11,3.11,0,0,1-1.91-.49,2.17,2.17,0,0,1-.81-1.39l-.08-.67a6.73,6.73,0,0,1-2.34,1.93,6.38,6.38,0,0,1-2.87.68,5.81,5.81,0,0,1-2-.35,4.67,4.67,0,0,1-2.68-2.47,4.43,4.43,0,0,1-.39-1.86,4.38,4.38,0,0,1,.46-2,4.59,4.59,0,0,1,1.31-1.54,6.6,6.6,0,0,1,2-1,8.54,8.54,0,0,1,2.55-.36,10.46,10.46,0,0,1,1.79.15,6,6,0,0,1,1.52.47v-.68c0-1.7-1-2.54-2.94-2.54a6.55,6.55,0,0,0-2.3.4,11.24,11.24,0,0,0-2.3,1.22l-1.31-2.8a11.72,11.72,0,0,1,3-1.43,11.36,11.36,0,0,1,3.33-.47m-.7,12a4.06,4.06,0,0,0,1.42-.26,3.14,3.14,0,0,0,1.13-.67,1.39,1.39,0,0,0,.65-1.06v-1.4a7.05,7.05,0,0,0-1.28-.35,6.59,6.59,0,0,0-1.27-.13,3.48,3.48,0,0,0-2,.56,1.71,1.71,0,0,0-.8,1.46,1.64,1.64,0,0,0,.62,1.33,2.37,2.37,0,0,0,1.56.52m.7-13a12.62,12.62,0,0,0-3.62.51,13.25,13.25,0,0,0-3.28,1.55l-.73.48.37.78,1.32,2.8.4.85-.41.29a5.67,5.67,0,0,0-1.59,1.87,5.55,5.55,0,0,0-.08,4.73,5.59,5.59,0,0,0,1.28,1.79,5.84,5.84,0,0,0,1.95,1.19,6.62,6.62,0,0,0,2.38.42,7.46,7.46,0,0,0,3.31-.78,7.29,7.29,0,0,0,1.39-.89,3.06,3.06,0,0,0,.8.92,4,4,0,0,0,2.51.69c.28,0,.6,0,.95-.05a8.69,8.69,0,0,0,1.21-.2l.77-.18V239l-.9-.1h0a1.86,1.86,0,0,1,0-.26v-3.78a6.7,6.7,0,0,0-2.17-5.35,8.62,8.62,0,0,0-5.81-1.81Zm-3.94,6.19a8.91,8.91,0,0,1,1.55-.77,5.52,5.52,0,0,1,1.95-.34c1.21,0,1.67.35,1.84.81l-.24,0a11.64,11.64,0,0,0-2-.17,9.53,9.53,0,0,0-2.85.41l-.28.1Zm3.24,5.85a1.39,1.39,0,0,1-.92-.29.64.64,0,0,1-.26-.56.7.7,0,0,1,.37-.64,2.53,2.53,0,0,1,1.46-.38,6.29,6.29,0,0,1,1.09.11l.46.1v.67h0a1,1,0,0,1-.27.27l0,0,0,0a2.28,2.28,0,0,1-.8.46,3,3,0,0,1-1.07.2Z"/><path d="M473.26,244.42a8.79,8.79,0,0,1-3.51-.68,8,8,0,0,1-2.66-1.79,7.71,7.71,0,0,1-1.66-2.6,8.75,8.75,0,0,1,0-6.16,7.65,7.65,0,0,1,4.29-4.38,9.23,9.23,0,0,1,3.54-.65,8.45,8.45,0,0,1,4.55,1.15,7.46,7.46,0,0,1,2.79,3l.26.53-5.3,1.6-.2-.32a2.33,2.33,0,0,0-2.13-1.17,2.53,2.53,0,0,0-2,.87,3.46,3.46,0,0,0-.81,2.44,4.23,4.23,0,0,0,.22,1.42,3.35,3.35,0,0,0,.6,1.05,2.83,2.83,0,0,0,.89.66,2.45,2.45,0,0,0,1.06.24,2.56,2.56,0,0,0,1.29-.34,2.17,2.17,0,0,0,.85-.85l.19-.37,5.32,1.64-.25.52a7.16,7.16,0,0,1-2.78,3A8.67,8.67,0,0,1,473.26,244.42Z"/><path class="cls-1" d="M473.26,228.66a8,8,0,0,1,4.29,1.07,7,7,0,0,1,2.6,2.82l-4.37,1.31a2.83,2.83,0,0,0-2.55-1.4,3,3,0,0,0-2.33,1,3.94,3.94,0,0,0-.94,2.77,4.64,4.64,0,0,0,.25,1.58,3.55,3.55,0,0,0,.7,1.22,3.23,3.23,0,0,0,1,.79,3.09,3.09,0,0,0,1.27.28,3,3,0,0,0,1.54-.41,2.56,2.56,0,0,0,1-1l4.37,1.34a6.56,6.56,0,0,1-2.59,2.8,8.12,8.12,0,0,1-4.33,1.1,8.36,8.36,0,0,1-3.32-.63,7.59,7.59,0,0,1-2.49-1.68,7.1,7.1,0,0,1-1.55-2.44,8.2,8.2,0,0,1,0-5.8,7.18,7.18,0,0,1,1.54-2.43,7.28,7.28,0,0,1,2.48-1.67,8.57,8.57,0,0,1,3.34-.61m0-1a9.61,9.61,0,0,0-3.73.69A8.14,8.14,0,0,0,465,233a9.3,9.3,0,0,0,0,6.52,8.08,8.08,0,0,0,1.78,2.77,8.45,8.45,0,0,0,2.81,1.9,10,10,0,0,0,8.56-.52,7.6,7.6,0,0,0,3-3.23l.5-1-1.11-.34-4.37-1.35-.79-.24-.39.74a1.54,1.54,0,0,1-.65.64,1.93,1.93,0,0,1-1,.28,2.07,2.07,0,0,1-.85-.19,2.24,2.24,0,0,1-.72-.54,2.84,2.84,0,0,1-.51-.89,3.77,3.77,0,0,1-.19-1.25,3,3,0,0,1,.68-2.1,2,2,0,0,1,1.59-.71,1.82,1.82,0,0,1,1.7.93l.41.65.73-.22,4.37-1.32,1.14-.34L481,232.1a8,8,0,0,0-3-3.22,9,9,0,0,0-4.81-1.22Z"/><path d="M486.14,244.39a4.56,4.56,0,0,1-3.31-1.15,4.38,4.38,0,0,1-1.19-3.27V222.7h5.48v15.7c0,1.09.48,1.18.93,1.18a3,3,0,0,0,.62-.08,2.77,2.77,0,0,0,.61-.24l.62-.37.78,4.45-.35.16a8.72,8.72,0,0,1-2,.65A10.48,10.48,0,0,1,486.14,244.39Z"/><path class="cls-1" d="M486.62,223.2v15.2c0,1.12.47,1.68,1.43,1.68a3,3,0,0,0,.74-.1,2.54,2.54,0,0,0,.74-.29l.59,3.36a8.93,8.93,0,0,1-1.93.61,10.21,10.21,0,0,1-2.05.23,4.09,4.09,0,0,1-3-1,3.87,3.87,0,0,1-1-2.91V223.2h4.48m1-1h-6.48V240a4.86,4.86,0,0,0,1.34,3.63,5.07,5.07,0,0,0,3.66,1.29,11.47,11.47,0,0,0,2.25-.25,9.19,9.19,0,0,0,2.15-.69l.69-.32-.13-.75-.59-3.37-.24-1.41-1.25.72a1.54,1.54,0,0,1-.47.19,2,2,0,0,1-.5.07c-.28,0-.43,0-.43-.68V222.2Z"/><path d="M498.6,244.42a9.34,9.34,0,0,1-3.51-.64,8.06,8.06,0,0,1-2.65-1.75,7.56,7.56,0,0,1-1.67-2.57,8.34,8.34,0,0,1-.56-3,9.15,9.15,0,0,1,.56-3.19,7.76,7.76,0,0,1,1.65-2.64,7.64,7.64,0,0,1,2.64-1.8,9.94,9.94,0,0,1,7.07,0,8,8,0,0,1,2.63,1.78,7.78,7.78,0,0,1,1.63,2.59,8.55,8.55,0,0,1,.55,3.06q0,.42,0,.81a6.13,6.13,0,0,1-.09.72l-.08.4H496a2.3,2.3,0,0,0,.82,1.36,2.87,2.87,0,0,0,1.88.67,3.65,3.65,0,0,0,1.66-.42,1.92,1.92,0,0,0,1-1l.17-.42,4.83,1.35-.27.54a7.35,7.35,0,0,1-2.88,3A8.89,8.89,0,0,1,498.6,244.42Zm2.52-10a2.66,2.66,0,0,0-.76-1.35,2.55,2.55,0,0,0-1.81-.67,2.51,2.51,0,0,0-1.83.68,2.86,2.86,0,0,0-.75,1.34Z"/><path class="cls-1" d="M498.6,228.66a8.49,8.49,0,0,1,3.33.61,7.33,7.33,0,0,1,2.47,1.67,6.94,6.94,0,0,1,1.52,2.42,8,8,0,0,1,.52,2.88c0,.26,0,.52,0,.77a3.84,3.84,0,0,1-.08.66H495.47a3,3,0,0,0,1.07,2.26,3.47,3.47,0,0,0,2.2.77,4,4,0,0,0,1.89-.48,2.46,2.46,0,0,0,1.22-1.29l3.81,1.07a6.86,6.86,0,0,1-2.69,2.82,8.32,8.32,0,0,1-4.37,1.1,8.73,8.73,0,0,1-3.32-.61,7.33,7.33,0,0,1-2.49-1.63,7,7,0,0,1-1.55-2.4,7.58,7.58,0,0,1-.53-2.84,8.36,8.36,0,0,1,.53-3,7.3,7.3,0,0,1,1.54-2.48,7.16,7.16,0,0,1,2.48-1.68,8.57,8.57,0,0,1,3.34-.61m-3.22,6.24h6.33a3.35,3.35,0,0,0-1-2.21,3,3,0,0,0-2.15-.81,3,3,0,0,0-2.17.82,3.45,3.45,0,0,0-1,2.2m3.22-7.24a9.61,9.61,0,0,0-3.73.69,8.27,8.27,0,0,0-2.82,1.91,8.37,8.37,0,0,0-1.75,2.82,9.62,9.62,0,0,0-.59,3.36,8.75,8.75,0,0,0,.6,3.21,8.18,8.18,0,0,0,1.77,2.73,8.4,8.4,0,0,0,2.82,1.86,9.75,9.75,0,0,0,3.7.68,9.31,9.31,0,0,0,4.88-1.24,7.76,7.76,0,0,0,3.07-3.24l.54-1.08-1.16-.33-1.29-.36h2.51l.16-.8a5.51,5.51,0,0,0,.1-.78c0-.28,0-.56,0-.85a9,9,0,0,0-.58-3.23,8.17,8.17,0,0,0-1.74-2.77,8.29,8.29,0,0,0-2.8-1.89,9.53,9.53,0,0,0-3.72-.69Zm-1.9,6.24a1.92,1.92,0,0,1,.37-.48,2,2,0,0,1,1.48-.54,2,2,0,0,1,1.47.54,2.23,2.23,0,0,1,.38.48Zm.06,4.77h4.11a1.46,1.46,0,0,1-.7.66,3,3,0,0,1-1.43.37,2.44,2.44,0,0,1-1.57-.56,1.55,1.55,0,0,1-.41-.47Z"/><path d="M514.28,244.42a12.42,12.42,0,0,1-3.85-.63,8.92,8.92,0,0,1-3.26-1.86l-.3-.27,2.07-3.56.44.31a13.16,13.16,0,0,0,2.52,1.37,6.23,6.23,0,0,0,2.27.47,2,2,0,0,0,1.07-.23.49.49,0,0,0,.25-.47c0-.15,0-.33-.35-.51a9,9,0,0,0-2-.69,26.89,26.89,0,0,1-2.56-.83,7.64,7.64,0,0,1-1.79-.93,3.37,3.37,0,0,1-1.08-1.29,4.06,4.06,0,0,1-.32-1.66,5.13,5.13,0,0,1,.5-2.26,5,5,0,0,1,1.36-1.74,6.53,6.53,0,0,1,2-1.09,7.8,7.8,0,0,1,2.5-.39,10.71,10.71,0,0,1,3.24.47,8.17,8.17,0,0,1,3,1.72l.32.29-2.25,3.48-.42-.29a11.67,11.67,0,0,0-2.14-1.21,4.62,4.62,0,0,0-1.72-.36,1.89,1.89,0,0,0-1,.23.5.5,0,0,0-.26.51.49.49,0,0,0,.29.48,8.13,8.13,0,0,0,1.91.63,25.2,25.2,0,0,1,2.71.86,7.4,7.4,0,0,1,1.87,1,3.77,3.77,0,0,1,1.13,1.38,4.39,4.39,0,0,1,.35,1.81A4.71,4.71,0,0,1,519,243,7.38,7.38,0,0,1,514.28,244.42Z"/><path class="cls-1" d="M513.78,228.66a10.31,10.31,0,0,1,3.09.44,7.75,7.75,0,0,1,2.79,1.63l-1.74,2.69a11.78,11.78,0,0,0-2.24-1.26,5,5,0,0,0-1.9-.4,2.4,2.4,0,0,0-1.24.3,1,1,0,0,0-.5.94,1,1,0,0,0,.55.92,8.64,8.64,0,0,0,2,.67,26.21,26.21,0,0,1,2.64.84,6.77,6.77,0,0,1,1.75.94,3.06,3.06,0,0,1,1,1.19,3.74,3.74,0,0,1,.31,1.6,4.21,4.21,0,0,1-1.62,3.47,6.9,6.9,0,0,1-4.4,1.29,11.81,11.81,0,0,1-3.7-.61,8.46,8.46,0,0,1-3.08-1.75l1.6-2.74a13.4,13.4,0,0,0,2.62,1.43,6.78,6.78,0,0,0,2.45.5,2.39,2.39,0,0,0,1.34-.31,1,1,0,0,0,.48-.89,1.06,1.06,0,0,0-.6-.94,9.39,9.39,0,0,0-2.12-.74c-1-.28-1.82-.55-2.5-.81a7.81,7.81,0,0,1-1.67-.87,2.76,2.76,0,0,1-.92-1.09,3.46,3.46,0,0,1-.28-1.46,4.56,4.56,0,0,1,.45-2,4.39,4.39,0,0,1,1.23-1.57,5.73,5.73,0,0,1,1.86-1,7.36,7.36,0,0,1,2.34-.36m0-1a8.47,8.47,0,0,0-2.66.41,7,7,0,0,0-2.18,1.18,5.66,5.66,0,0,0-1.49,1.91,5.54,5.54,0,0,0-.55,2.48,4.43,4.43,0,0,0,.37,1.87,3.76,3.76,0,0,0,1.24,1.48,7.63,7.63,0,0,0,1.9,1c.7.27,1.58.55,2.59.84a9.23,9.23,0,0,1,1.89.64l.11.09,0,0a1.52,1.52,0,0,1-.81.15,5.57,5.57,0,0,1-2.08-.43,12.41,12.41,0,0,1-2.42-1.32l-.89-.62-.54.94-1.6,2.74-.41.7.6.54a9.38,9.38,0,0,0,3.44,2,12.58,12.58,0,0,0,4,.66,7.88,7.88,0,0,0,5-1.51,5.17,5.17,0,0,0,2-4.25,4.76,4.76,0,0,0-.4-2,4.11,4.11,0,0,0-1.28-1.56,6.89,6.89,0,0,0-1.38-.82l.52-.8,1.74-2.69.47-.73-.65-.57a8.84,8.84,0,0,0-3.15-1.82,11.39,11.39,0,0,0-3.39-.49Zm4.1,6.94-.25-.1a26,26,0,0,0-2.75-.87,8.29,8.29,0,0,1-1.8-.58l-.05,0a.42.42,0,0,1,0-.11,1.62,1.62,0,0,1,.73-.15,4.2,4.2,0,0,1,1.53.32,10.92,10.92,0,0,1,2,1.16l.53.36Z"/><path d="M347.14,248.39a15.23,15.23,0,0,1-15.44-15,14.32,14.32,0,0,1,1.33-6.05,11,11,0,0,0-4.44-1.39h-.18A12.08,12.08,0,0,0,324,227.1a14.5,14.5,0,0,1,1.27,5.93,15.45,15.45,0,1,1-15.44-15,15.52,15.52,0,0,1,11.92,5.49,17.11,17.11,0,0,1,6.68-1.74h.32a15.52,15.52,0,0,1,6.56,2,15.52,15.52,0,0,1,11.86-5.42,15,15,0,1,1,0,30Zm0-25.73a10.75,10.75,0,1,0,11.19,10.74A11,11,0,0,0,347.14,222.66Zm-37.34-.38A10.75,10.75,0,1,0,321,233,11,11,0,0,0,309.8,222.28Z"/><path class="cls-1" d="M309.8,218.54a15.06,15.06,0,0,1,11.78,5.6,17.3,17.3,0,0,1,6.82-1.85h.3a15.73,15.73,0,0,1,6.71,2.17,15.07,15.07,0,0,1,11.73-5.55A14.5,14.5,0,1,1,332.2,233.4a14,14,0,0,1,1.49-6.27,12.27,12.27,0,0,0-5.09-1.67h-.19a13.53,13.53,0,0,0-5.12,1.39,14,14,0,0,1,1.45,6.19,14.95,14.95,0,1,1-14.94-14.49m0,25.73A11.25,11.25,0,1,0,298.11,233a11.49,11.49,0,0,0,11.69,11.24m37.34.38a11.25,11.25,0,1,0-11.7-11.25,11.5,11.5,0,0,0,11.7,11.25M309.8,217.54A15.5,15.5,0,1,0,325.74,233a14.87,14.87,0,0,0-1.11-5.66,10.71,10.71,0,0,1,3.78-.92h.16a9.83,9.83,0,0,1,3.81,1.14,14.76,14.76,0,0,0-1.18,5.81,15.95,15.95,0,1,0,15.94-15.49,16.06,16.06,0,0,0-12,5.29,15.53,15.53,0,0,0-6.43-1.91h-.33a16.86,16.86,0,0,0-6.54,1.63,16,16,0,0,0-12.06-5.38Zm0,25.73A10.25,10.25,0,1,1,320.5,233a10.48,10.48,0,0,1-10.7,10.24Zm37.34.38a10.25,10.25,0,1,1,10.69-10.25,10.5,10.5,0,0,1-10.69,10.25Z"/><rect class="cls-4" x="211.41" y="27.45" width="168" height="77.39" rx="18"/><path class="cls-1" d="M266.14,69.41A4.73,4.73,0,0,1,263,70.56a6.35,6.35,0,0,1-2.37-.44,5.48,5.48,0,0,1-2-1.29,6,6,0,0,1-1.35-2.07,7.16,7.16,0,0,1-.51-2.79,6.19,6.19,0,0,1,.51-2.51,6.27,6.27,0,0,1,1.38-2,6.55,6.55,0,0,1,2.08-1.35,6.72,6.72,0,0,1,2.59-.5,7.45,7.45,0,0,1,1.65.19,5.89,5.89,0,0,1,1.47.56,6,6,0,0,1,1.21.88,4.54,4.54,0,0,1,.89,1.16l-2.61,2a3,3,0,0,0-1.14-1.21,3,3,0,0,0-1.6-.46,2.58,2.58,0,0,0-1.15.25,2.67,2.67,0,0,0-.9.7,3.58,3.58,0,0,0-.6,1.07,4.54,4.54,0,0,0,0,2.73,3.19,3.19,0,0,0,.61,1,2.62,2.62,0,0,0,.92.69,3,3,0,0,0,1.21.24,3.59,3.59,0,0,0,2.7-1.26h-2.21V63.67H269v6.8h-2.9Z"/><path class="cls-1" d="M273.33,70.65a3.81,3.81,0,0,1-1.32-.23,3.25,3.25,0,0,1-1.05-.64,2.74,2.74,0,0,1-.69-1,2.92,2.92,0,0,1-.26-1.21,2.84,2.84,0,0,1,.31-1.31,3.11,3.11,0,0,1,.85-1,3.89,3.89,0,0,1,1.28-.67,5.72,5.72,0,0,1,1.65-.23,4.46,4.46,0,0,1,1.91.36v-.29a1.22,1.22,0,0,0-.39-1,2,2,0,0,0-1.25-.32,4.2,4.2,0,0,0-1.49.26,7.2,7.2,0,0,0-1.44.76l-1-2.12a7.72,7.72,0,0,1,4.26-1.21,5.36,5.36,0,0,1,3.49,1,3.68,3.68,0,0,1,1.23,3v1.83a1.15,1.15,0,0,0,.14.68.7.7,0,0,0,.51.22v2.88c-.28.06-.54.11-.79.14a5.25,5.25,0,0,1-.65,0,2.45,2.45,0,0,1-1.4-.33,1.56,1.56,0,0,1-.62-1l-.07-.34a4.35,4.35,0,0,1-1.46,1.23A3.84,3.84,0,0,1,273.33,70.65Zm1-2.45a2.28,2.28,0,0,0,.63-.09,2.39,2.39,0,0,0,.58-.27,1.35,1.35,0,0,0,.32-.31.54.54,0,0,0,.13-.35v-.7a3.46,3.46,0,0,0-.67-.18,3.2,3.2,0,0,0-.65-.08,1.73,1.73,0,0,0-1,.31.9.9,0,0,0-.41.77.79.79,0,0,0,.31.65A1.23,1.23,0,0,0,274.35,68.2Z"/><path class="cls-1" d="M287.85,70a9.93,9.93,0,0,1-1.54.51,6.41,6.41,0,0,1-1.61.21,4.42,4.42,0,0,1-1.1-.14,2.63,2.63,0,0,1-.91-.47,2.35,2.35,0,0,1-.61-.85,3.28,3.28,0,0,1-.22-1.29V63.58h-1.17V61h1.17V58h3.42v3h1.85v2.58h-1.85v3.13a.87.87,0,0,0,.2.66.77.77,0,0,0,.54.19,2.59,2.59,0,0,0,.57-.08,4.21,4.21,0,0,0,.65-.23Z"/><path class="cls-1" d="M293.38,70.65a6.15,6.15,0,0,1-2.22-.38,4.74,4.74,0,0,1-1.63-1.06,4.43,4.43,0,0,1-1-1.53,4.83,4.83,0,0,1-.35-1.82,5.46,5.46,0,0,1,.34-1.94,4.4,4.4,0,0,1,1-1.6,4.58,4.58,0,0,1,1.62-1.09,6.3,6.3,0,0,1,4.47,0,4.84,4.84,0,0,1,1.63,1.08,4.37,4.37,0,0,1,1,1.57,5.28,5.28,0,0,1,.33,1.86,5.21,5.21,0,0,1,0,.55,3.28,3.28,0,0,1-.06.49h-6.64a1.32,1.32,0,0,0,.56,1.09,2,2,0,0,0,1.1.33,2.26,2.26,0,0,0,1.05-.25,1.28,1.28,0,0,0,.66-.7l2.89.83a4.55,4.55,0,0,1-1.77,1.85A5.62,5.62,0,0,1,293.38,70.65Zm1.51-5.92a1.77,1.77,0,0,0-.5-1.08,1.62,1.62,0,0,0-2.13,0,1.77,1.77,0,0,0-.5,1.08Z"/><path class="cls-1" d="M311,61h3.22l-3.87,9.47h-2.79l-1.27-3.6L305,70.47H302.2L298.33,61h3.22l2.29,6.36.59-2L302.74,61h2.72l.81,2.78.81-2.78h2.71l-1.69,4.32.6,2Z"/><path class="cls-1" d="M317.43,70.65a3.81,3.81,0,0,1-1.32-.23,3.25,3.25,0,0,1-1.05-.64,2.74,2.74,0,0,1-.69-1,2.92,2.92,0,0,1-.26-1.21,2.72,2.72,0,0,1,.31-1.31,3.11,3.11,0,0,1,.85-1,3.8,3.8,0,0,1,1.28-.67,5.72,5.72,0,0,1,1.65-.23,4.46,4.46,0,0,1,1.91.36v-.29a1.22,1.22,0,0,0-.39-1,2,2,0,0,0-1.25-.32,4.2,4.2,0,0,0-1.49.26,7.2,7.2,0,0,0-1.44.76l-1-2.12a7.72,7.72,0,0,1,4.26-1.21,5.36,5.36,0,0,1,3.49,1,3.68,3.68,0,0,1,1.23,3v1.83a1.23,1.23,0,0,0,.14.68.72.72,0,0,0,.51.22v2.88c-.28.06-.54.11-.79.14a5.25,5.25,0,0,1-.65,0,2.45,2.45,0,0,1-1.4-.33,1.56,1.56,0,0,1-.62-1l-.07-.34a4.35,4.35,0,0,1-1.46,1.23A3.84,3.84,0,0,1,317.43,70.65Zm1-2.45a2.28,2.28,0,0,0,.63-.09,2.39,2.39,0,0,0,.58-.27,1.35,1.35,0,0,0,.32-.31.54.54,0,0,0,.13-.35v-.7a3.46,3.46,0,0,0-.67-.18,3.2,3.2,0,0,0-.65-.08,1.73,1.73,0,0,0-1,.31.9.9,0,0,0-.41.77.79.79,0,0,0,.31.65A1.23,1.23,0,0,0,318.45,68.2Z"/><path class="cls-1" d="M324.91,71.43a4.3,4.3,0,0,0,1.41.3q1.1,0,1.2-1.26L324.09,61h3.51l1.8,6.57L330.85,61H334l-3.2,10.61a4.68,4.68,0,0,1-.62,1.27,4.33,4.33,0,0,1-.94,1,4.39,4.39,0,0,1-1.22.62,4.52,4.52,0,0,1-1.38.21,4.68,4.68,0,0,1-1.77-.34Z"/><rect class="cls-5" x="211.41" y="118.06" width="168" height="77.39" rx="18"/><path class="cls-1" d="M271.35,161V148.26h5.5a4,4,0,0,1,1.73.38,4.6,4.6,0,0,1,1.36,1,4.66,4.66,0,0,1,.89,1.42,4.23,4.23,0,0,1,.33,1.62,4.63,4.63,0,0,1-.31,1.64,4.51,4.51,0,0,1-.85,1.42,4,4,0,0,1-1.34,1,3.9,3.9,0,0,1-1.72.37h-2.08V161Zm3.51-7h1.85a.82.82,0,0,0,.6-.29,1.56,1.56,0,0,0,.28-1.07,1.48,1.48,0,0,0-.32-1.09,1,1,0,0,0-.65-.28h-1.76Z"/><path class="cls-1" d="M288.75,154.49a7.17,7.17,0,0,0-1.8.21,2.23,2.23,0,0,0-1.2.72V161h-3.42v-9.47h3.13v1.8a3.89,3.89,0,0,1,1.25-1.47,2.79,2.79,0,0,1,1.61-.51,3.16,3.16,0,0,1,.43,0Z"/><path class="cls-1" d="M294.48,161.22a5.79,5.79,0,0,1-2.25-.41,4.89,4.89,0,0,1-1.62-1.08,4.71,4.71,0,0,1-1-1.56,5.38,5.38,0,0,1-.33-1.87,5.32,5.32,0,0,1,.33-1.86,4.75,4.75,0,0,1,1-1.57,4.89,4.89,0,0,1,1.62-1.08,6.47,6.47,0,0,1,4.48,0,4.84,4.84,0,0,1,1.63,1.08,4.75,4.75,0,0,1,1,1.57,5.32,5.32,0,0,1,.33,1.86,5.38,5.38,0,0,1-.33,1.87,4.71,4.71,0,0,1-1,1.56,4.84,4.84,0,0,1-1.63,1.08A5.76,5.76,0,0,1,294.48,161.22Zm-1.68-4.92a2.23,2.23,0,0,0,.47,1.5,1.61,1.61,0,0,0,2.41,0,2.61,2.61,0,0,0,0-3,1.61,1.61,0,0,0-2.41,0A2.22,2.22,0,0,0,292.8,156.3Z"/><path class="cls-1" d="M303,151.57l1.35,2.32.18.38.18-.38,1.35-2.32h3.48l-3.17,4.73,3.26,4.74h-3.48l-1.45-2.32-.17-.37-.16.37L303,161h-3.47l3.26-4.74-3.17-4.73Z"/><path class="cls-1" d="M310.35,162a4.3,4.3,0,0,0,1.41.31q1.1,0,1.2-1.26l-3.44-9.47H313l1.8,6.57,1.46-6.57h3.19l-3.21,10.6a4.27,4.27,0,0,1-.61,1.27A4.13,4.13,0,0,1,313.5,165a4.24,4.24,0,0,1-1.38.22,4.84,4.84,0,0,1-1.77-.34Z"/></g></g></svg>