<svg xmlns="http://www.w3.org/2000/svg" viewBox="0 0 803.44 256.99"><defs><style>.cls-1,.cls-7{fill:#fff;}.cls-17,.cls-2,.cls-3,.cls-4{fill:none;stroke:#000;stroke-miterlimit:10;}.cls-2,.cls-3,.cls-4{stroke-width:0.75px;}.cls-3{stroke-dasharray:7.05 7.05;}.cls-4{stroke-dasharray:7.12 7.12;}.cls-5{fill:#7289da;}.cls-6{fill:#00acd7;}.cls-18,.cls-7{font-size:18px;}.cls-18,.cls-20,.cls-7{font-family:Raleway-ExtraBold, Raleway;font-weight:800;}.cls-8{letter-spacing:0em;}.cls-9{letter-spacing:-0.01em;}.cls-10{letter-spacing:-0.01em;}.cls-11{letter-spacing:-0.01em;}.cls-12{letter-spacing:-0.03em;}.cls-13{fill:#b83998;}.cls-14{letter-spacing:-0.01em;}.cls-15{letter-spacing:-0.03em;}.cls-16{letter-spacing:-0.02em;}.cls-19{letter-spacing:-0.09em;}.cls-20{font-size:28px;}</style></defs><title>Asset 2</title><g id="Layer_2" data-name="Layer 2"><g id="Layer_1-2" data-name="Layer 1"><rect class="cls-1" x="189.71" y="0.38" width="422.82" height="256.24"/><polyline class="cls-2" points="612.53 253.11 612.53 256.61 609.03 256.61"/><line class="cls-3" x1="601.98" y1="256.61" x2="196.73" y2="256.61"/><polyline class="cls-2" points="193.21 256.61 189.71 256.61 189.71 253.11"/><line class="cls-4" x1="189.71" y1="245.99" x2="189.71" y2="7.44"/><polyline class="cls-2" points="189.71 3.88 189.71 0.38 193.21 0.38"/><line class="cls-3" x1="200.25" y1="0.38" x2="605.51" y2="0.38"/><polyline class="cls-2" points="609.03 0.38 612.53 0.38 612.53 3.88"/><line class="cls-4" x1="612.53" y1="11" x2="612.53" y2="249.55"/><rect class="cls-5" y="27.2" width="168" height="168" rx="18"/><rect class="cls-6" x="211.41" y="27.2" width="168" height="168" rx="18"/><text class="cls-7" transform="translate(257.36 116.81)">G<tspan class="cls-8" x="13.18" y="0">a</tspan><tspan class="cls-9" x="23.65" y="0">t</tspan><tspan class="cls-10" x="30.65" y="0">e</tspan><tspan class="cls-11" x="41.27" y="0">wa</tspan><tspan class="cls-12" x="66.65" y="0">y</tspan></text><rect class="cls-13" x="422.82" y="27.2" width="168" height="168" rx="18"/><text class="cls-7" transform="translate(468.26 106.01)"><tspan class="cls-14">M</tspan><tspan x="15.35" y="0">essage</tspan><tspan x="10.25" y="21.6">b</tspan><tspan class="cls-15" x="21.77" y="21.6">r</tspan><tspan x="28.5" y="21.6">o</tspan><tspan class="cls-12" x="39.48" y="21.6">k</tspan><tspan x="49.24" y="21.6">e</tspan><tspan class="cls-16" x="60.11" y="21.6">r</tspan></text><path class="cls-1" d="M36,108.22a2,2,0,0,0-1.91,2,1.91,1.91,0,1,0,1.91-2Zm-6.83,0a2,2,0,0,0-1.9,2,1.91,1.91,0,1,0,3.81,0A2,2,0,0,0,29.14,108.22Z"/><path class="cls-1" d="M45.05,92.66H20a3.84,3.84,0,0,0-3.83,3.83v25.06A3.84,3.84,0,0,0,20,125.38H41.2l-1-3.42,2.4,2.2,2.26,2.08,4,3.5V96.49A3.87,3.87,0,0,0,45.05,92.66Zm-7.21,24.21s-.68-.8-1.24-1.49A5.94,5.94,0,0,0,40,113.17a10.45,10.45,0,0,1-2.15,1.1,13.15,13.15,0,0,1-2.71.81,13.32,13.32,0,0,1-4.85,0,15,15,0,0,1-2.74-.8,11.79,11.79,0,0,1-1.37-.64l-.17-.09s-.05,0-.07,0c-.34-.19-.53-.32-.53-.32a5.85,5.85,0,0,0,3.28,2.19c-.56.71-1.26,1.53-1.26,1.53a6.79,6.79,0,0,1-5.7-2.82,24.69,24.69,0,0,1,2.69-10.81,9.27,9.27,0,0,1,5.24-1.94l.19.22a12.34,12.34,0,0,0-4.9,2.43s.41-.22,1.1-.52a14.83,14.83,0,0,1,4.24-1.18,1.87,1.87,0,0,1,.32,0,15.82,15.82,0,0,1,3.78,0A15.63,15.63,0,0,1,40,104a12.3,12.3,0,0,0-4.66-2.35l.26-.3a9.23,9.23,0,0,1,5.24,1.94,24.69,24.69,0,0,1,2.69,10.81,6.85,6.85,0,0,1-5.7,2.8Zm28.23-16.21H59.86v7L64,111.36v-6.77H66.2c1.4,0,2.09.67,2.09,1.76v5.18c0,1.08-.65,1.81-2.09,1.81H59.84v3.94h6.21c3.33,0,6.45-1.64,6.45-5.46v-5.57C72.52,102.36,69.4,100.66,66.07,100.66ZM98.6,111.82V106.1c0-2,3.7-2.52,4.83-.46l3.42-1.39a6.17,6.17,0,0,0-5.84-3.81c-3.32,0-6.61,1.92-6.61,5.66v5.72c0,3.78,3.29,5.67,6.54,5.67a6.68,6.68,0,0,0,6-3.72l-3.66-1.68c-.9,2.3-4.66,1.74-4.66-.27Zm-11.31-4.93c-1.29-.28-2.15-.75-2.21-1.55.08-1.93,3-2,4.79-.15l2.75-2.12A6.83,6.83,0,0,0,87,100.42c-3,0-6,1.72-6,5s2.43,4.86,5.11,5.28c1.36.18,2.88.72,2.84,1.66-.11,1.78-3.78,1.68-5.44-.34l-2.66,2.49a7.29,7.29,0,0,0,5.65,3c3,0,6.43-1.76,6.56-5,.19-4.06-2.77-5.09-5.72-5.63ZM74.76,117.27H79V100.66H74.76Zm70.62-16.61h-6.21v7l4.14,3.72v-6.77h2.2c1.4,0,2.1.67,2.1,1.76v5.18c0,1.08-.66,1.81-2.1,1.81h-6.35v3.94h6.22c3.33,0,6.45-1.64,6.45-5.46v-5.57C151.83,102.36,148.71,100.66,145.38,100.66Zm-30.46-.22c-3.44,0-6.86,1.87-6.86,5.7v5.67c0,3.79,3.44,5.7,6.9,5.7s6.86-1.91,6.86-5.7v-5.67C121.82,102.33,118.36,100.44,114.92,100.44Zm2.7,11.37c0,1.19-1.35,1.81-2.68,1.81s-2.69-.58-2.69-1.81v-5.67c0-1.21,1.31-1.87,2.62-1.87s2.75.58,2.75,1.87Zm19.24-5.67c-.1-3.89-2.75-5.46-6.17-5.46h-6.64v16.6h4.24V112H129l3.85,5.27h5.24l-4.53-5.7C135.6,111,136.86,109.21,136.86,106.14Zm-6.1,2.24h-2.47v-3.79h2.47A1.9,1.9,0,1,1,130.76,108.38Z"/><line class="cls-5" x1="168" y1="112.45" x2="211.41" y2="112.45"/><line class="cls-17" x1="168" y1="112.45" x2="205.38" y2="112.45"/><path d="M211.41,112.45a30.31,30.31,0,0,0-8.55,4.75l1.72-4.75-1.72-4.76A30.34,30.34,0,0,0,211.41,112.45Z"/><line class="cls-5" x1="379.41" y1="112.45" x2="422.82" y2="112.45"/><line class="cls-17" x1="379.41" y1="112.45" x2="416.79" y2="112.45"/><path d="M422.82,112.45a30.12,30.12,0,0,0-8.54,4.75l1.72-4.75-1.72-4.76A30.15,30.15,0,0,0,422.82,112.45Z"/><rect class="cls-17" x="634.94" y="28.45" width="168" height="168" rx="18"/><text class="cls-18" transform="translate(675.91 118.06)"><tspan class="cls-19">Y</tspan><tspan x="10.26" y="0">ou</tspan><tspan class="cls-16" x="32.53" y="0">r</tspan><tspan x="39.29" y="0" xml:space="preserve"> apps</tspan></text><line class="cls-5" x1="590.82" y1="111.2" x2="634.24" y2="111.2"/><line class="cls-17" x1="590.82" y1="111.2" x2="628.2" y2="111.2"/><path d="M634.24,111.2a30.18,30.18,0,0,0-8.55,4.75l1.72-4.75-1.72-4.76A30,30,0,0,0,634.24,111.2Z"/><line class="cls-5" x1="591.18" y1="150.73" x2="634.59" y2="150.73"/><line class="cls-17" x1="591.18" y1="150.73" x2="628.55" y2="150.73"/><path d="M634.59,150.73a30.18,30.18,0,0,0-8.55,4.75l1.72-4.75L626,146A30,30,0,0,0,634.59,150.73Z"/><line class="cls-5" x1="591.18" y1="71.67" x2="634.59" y2="71.67"/><line class="cls-17" x1="591.18" y1="71.67" x2="628.55" y2="71.67"/><path d="M634.59,71.67A30.18,30.18,0,0,0,626,76.42l1.72-4.75L626,66.91A30,30,0,0,0,634.59,71.67Z"/><text class="cls-20" transform="translate(369.02 243.39)">Spectacles</text><g id="layer1"><g id="g4533"><g id="path3680"><path d="M309.8,247.27a14.5,14.5,0,1,1,14.94-14.49A14.74,14.74,0,0,1,309.8,247.27Zm0-25.74a11.25,11.25,0,1,0,11.7,11.25A11.5,11.5,0,0,0,309.8,221.53Z"/></g><g id="path3680-3"><path d="M347.14,247.64a14.5,14.5,0,1,1,14.94-14.49A14.74,14.74,0,0,1,347.14,247.64Zm0-25.73a11.25,11.25,0,1,0,11.69,11.24A11.49,11.49,0,0,0,347.14,221.91Z"/></g><g id="path3707"><path d="M336.14,227.93c-.5,0-.74-.13-2.08-.85l-.08,0a13,13,0,0,0-5.38-1.83c-2.12-.07-4.47,1-7,2.11l-1.3-2.88c2.7-1.22,5.5-2.49,8.36-2.4a15.94,15.94,0,0,1,6.78,2.21l.07,0c.84.44,1,.54,1.1.56a1.48,1.48,0,0,0-.51-.09Z"/></g></g></g></g></g></svg>