<svg xmlns="http://www.w3.org/2000/svg" viewBox="0 0 803.44 256.99"><defs><style>.cls-1,.cls-2,.cls-3,.cls-8{fill:none;stroke:#000;stroke-miterlimit:10;}.cls-1,.cls-2,.cls-3{stroke-width:0.75px;}.cls-2{stroke-dasharray:7.05 7.05;}.cls-3{stroke-dasharray:7.12 7.12;}.cls-4{fill:#7289da;}.cls-5{fill:#00acd7;}.cls-6{fill:#fff;}.cls-7{fill:#b83998;}</style></defs><title>Asset 3</title><g id="Layer_2" data-name="Layer 2"><g id="Layer_1-2" data-name="Layer 1"><polyline class="cls-1" points="612.53 253.11 612.53 256.61 609.03 256.61"/><line class="cls-2" x1="601.98" y1="256.61" x2="196.73" y2="256.61"/><polyline class="cls-1" points="193.21 256.61 189.71 256.61 189.71 253.11"/><line class="cls-3" x1="189.71" y1="245.99" x2="189.71" y2="7.44"/><polyline class="cls-1" points="189.71 3.88 189.71 0.38 193.21 0.38"/><line class="cls-2" x1="200.25" y1="0.38" x2="605.51" y2="0.38"/><polyline class="cls-1" points="609.03 0.38 612.53 0.38 612.53 3.88"/><line class="cls-3" x1="612.53" y1="11" x2="612.53" y2="249.55"/><rect class="cls-4" y="27.2" width="168" height="168" rx="18"/><rect class="cls-5" x="211.41" y="27.2" width="168" height="168" rx="18"/><path class="cls-6" d="M267.37,115.55A4.77,4.77,0,0,1,264,116.9a5.9,5.9,0,0,1-2.37-.47,6.05,6.05,0,0,1-2-1.34,6.27,6.27,0,0,1-1.32-2.08,7.21,7.21,0,0,1-.49-2.67,6.5,6.5,0,0,1,.49-2.49,6.14,6.14,0,0,1,1.34-2,6.38,6.38,0,0,1,2-1.37,6.67,6.67,0,0,1,5.63.24,4.91,4.91,0,0,1,2,2l-2.2,1.66a3.11,3.11,0,0,0-1.25-1.34,3.46,3.46,0,0,0-1.77-.48,3,3,0,0,0-2.38,1.13,3.64,3.64,0,0,0-.66,1.23,4.84,4.84,0,0,0,0,3,3.77,3.77,0,0,0,.71,1.22,3.13,3.13,0,0,0,1.07.8,3.23,3.23,0,0,0,1.37.29,4.09,4.09,0,0,0,3.12-1.61v-.39h-2.49v-2.14h4.94v6.67h-2.45Z"/><path class="cls-6" d="M274.21,117a3.72,3.72,0,0,1-1.31-.23,3,3,0,0,1-1-.63,3.09,3.09,0,0,1-.69-1,3,3,0,0,1-.25-1.2,2.72,2.72,0,0,1,.3-1.28,2.93,2.93,0,0,1,.84-1,4.11,4.11,0,0,1,1.27-.65,5.6,5.6,0,0,1,1.64-.23,6.15,6.15,0,0,1,1.15.1,3.77,3.77,0,0,1,1,.29v-.43c0-1.09-.63-1.63-1.89-1.63a4.08,4.08,0,0,0-1.48.26,6.87,6.87,0,0,0-1.48.78l-.84-1.8a7.64,7.64,0,0,1,1.94-.92,7.48,7.48,0,0,1,2.14-.31,5,5,0,0,1,3.32,1,3.7,3.7,0,0,1,1.17,3v2.43a1,1,0,0,0,.13.61.67.67,0,0,0,.48.2v2.43a3.85,3.85,0,0,1-.69.12l-.55,0a2,2,0,0,1-1.23-.32,1.39,1.39,0,0,1-.52-.89l-.05-.43a4.47,4.47,0,0,1-1.51,1.24A4.06,4.06,0,0,1,274.21,117Zm.84-2.08a2.57,2.57,0,0,0,.91-.16,2.08,2.08,0,0,0,.73-.43.89.89,0,0,0,.42-.68v-.9a5.19,5.19,0,0,0-.82-.23,5,5,0,0,0-.82-.08,2.23,2.23,0,0,0-1.31.36,1.1,1.1,0,0,0-.51.94,1.06,1.06,0,0,0,.39.85A1.55,1.55,0,0,0,275.05,114.92Z"/><path class="cls-6" d="M288.12,116.31a11.85,11.85,0,0,1-1.36.47,5.79,5.79,0,0,1-1.54.22,3.62,3.62,0,0,1-1-.14,2.23,2.23,0,0,1-.84-.43,2,2,0,0,1-.57-.79,2.92,2.92,0,0,1-.2-1.17v-4.93h-1.21v-2.18h1.21v-3h2.88v3h1.92v2.18h-1.92v3.94a.85.85,0,0,0,.23.68.84.84,0,0,0,.59.21,2.29,2.29,0,0,0,.67-.11,3,3,0,0,0,.59-.24Z"/><path class="cls-6" d="M293.52,117a5.54,5.54,0,0,1-2.13-.39,4.61,4.61,0,0,1-1.6-1.06,4.46,4.46,0,0,1-1-1.53,5,5,0,0,1-.35-1.83,5.47,5.47,0,0,1,.35-1.94,4.84,4.84,0,0,1,1-1.59,4.62,4.62,0,0,1,1.59-1.08,5.6,5.6,0,0,1,2.15-.4,5.52,5.52,0,0,1,2.14.4,4.59,4.59,0,0,1,1.59,1.07,4.53,4.53,0,0,1,1,1.56,5.27,5.27,0,0,1,.33,1.85,4.1,4.1,0,0,1,0,.5,4.05,4.05,0,0,1-.05.42h-7a1.89,1.89,0,0,0,.69,1.45,2.18,2.18,0,0,0,1.41.49,2.65,2.65,0,0,0,1.22-.3,1.53,1.53,0,0,0,.78-.83l2.45.68a4.38,4.38,0,0,1-1.73,1.82A5.36,5.36,0,0,1,293.52,117Zm2-5.8a2.17,2.17,0,0,0-.65-1.42,2.1,2.1,0,0,0-2.78,0,2.16,2.16,0,0,0-.64,1.41Z"/><path class="cls-6" d="M311.27,107.36H314l-3.91,9.45h-2.36l-1.46-3.88-1.46,3.88h-2.35l-3.91-9.45h2.72l2.57,6.79.89-2.57-1.68-4.22h2.3l.92,2.85.9-2.85h2.31l-1.66,4.22.88,2.57Z"/><path class="cls-6" d="M317.37,117a3.66,3.66,0,0,1-1.3-.23,3,3,0,0,1-1-.63,3.06,3.06,0,0,1-.68-1,2.84,2.84,0,0,1-.25-1.2,2.71,2.71,0,0,1,.29-1.28,3,3,0,0,1,.84-1,4.17,4.17,0,0,1,1.28-.65,5.6,5.6,0,0,1,1.64-.23,6.23,6.23,0,0,1,1.15.1,3.69,3.69,0,0,1,1,.29v-.43c0-1.09-.63-1.63-1.89-1.63a4.08,4.08,0,0,0-1.48.26,6.81,6.81,0,0,0-1.47.78l-.85-1.8a7.7,7.7,0,0,1,1.95-.92,7.43,7.43,0,0,1,2.14-.31,4.92,4.92,0,0,1,3.31,1,3.7,3.7,0,0,1,1.17,3v2.43a1,1,0,0,0,.13.61.67.67,0,0,0,.48.2v2.43a3.91,3.91,0,0,1-.68.12l-.56,0a2,2,0,0,1-1.22-.32,1.4,1.4,0,0,1-.53-.89l0-.43a4.34,4.34,0,0,1-1.5,1.24A4.13,4.13,0,0,1,317.37,117Zm.85-2.08a2.61,2.61,0,0,0,.91-.16,2.27,2.27,0,0,0,.73-.43.9.9,0,0,0,.41-.68v-.9a4.76,4.76,0,0,0-1.64-.31,2.19,2.19,0,0,0-1.3.36,1.11,1.11,0,0,0-.52.94,1.07,1.07,0,0,0,.4.85A1.52,1.52,0,0,0,318.22,114.92Z"/><path class="cls-6" d="M325.08,118.24a5.2,5.2,0,0,0,.67.18,4.13,4.13,0,0,0,.57,0,1,1,0,0,0,.81-.36,3.68,3.68,0,0,0,.52-1.3l-3.6-9.45h3l2.2,7,1.89-7h2.7l-3.6,11a3.79,3.79,0,0,1-1.35,1.9,3.72,3.72,0,0,1-2.31.73,4.59,4.59,0,0,1-.73-.06,3.59,3.59,0,0,1-.74-.21Z"/><rect class="cls-7" x="422.82" y="27.2" width="168" height="168" rx="18"/><path class="cls-6" d="M479.56,106V98.36l-2.77,5.57h-1.58l-2.78-5.57V106h-2.95V93.23h3.21L476,99.91l3.33-6.68h3.18V106Z"/><path class="cls-6" d="M489.12,106.19a5.54,5.54,0,0,1-2.13-.38,4.61,4.61,0,0,1-1.6-1.06,4.32,4.32,0,0,1-1-1.53,5,5,0,0,1-.35-1.83,5.43,5.43,0,0,1,.35-1.94,4.53,4.53,0,0,1,1-1.59A4.48,4.48,0,0,1,487,96.78a5.6,5.6,0,0,1,2.15-.4,5.52,5.52,0,0,1,2.14.4,4.69,4.69,0,0,1,1.59,1.07,4.53,4.53,0,0,1,1,1.56,5.23,5.23,0,0,1,.33,1.85c0,.17,0,.34,0,.5a4.05,4.05,0,0,1-.05.42h-7a1.89,1.89,0,0,0,.69,1.45,2.18,2.18,0,0,0,1.41.49,2.65,2.65,0,0,0,1.22-.3,1.57,1.57,0,0,0,.78-.83l2.45.68a4.44,4.44,0,0,1-1.73,1.82A5.35,5.35,0,0,1,489.12,106.19Zm2-5.79a2.15,2.15,0,0,0-.65-1.42,1.94,1.94,0,0,0-1.39-.53,1.91,1.91,0,0,0-1.39.54,2.16,2.16,0,0,0-.64,1.41Z"/><path class="cls-6" d="M499.2,106.19a7.5,7.5,0,0,1-2.38-.38,5.49,5.49,0,0,1-2-1.13l1-1.76a9.42,9.42,0,0,0,1.68.92,4.41,4.41,0,0,0,1.58.32,1.58,1.58,0,0,0,.86-.2.63.63,0,0,0,.31-.57.68.68,0,0,0-.39-.61,5.66,5.66,0,0,0-1.36-.47c-.63-.18-1.17-.36-1.61-.53a4.43,4.43,0,0,1-1.07-.55,1.79,1.79,0,0,1-.59-.71,2.2,2.2,0,0,1-.18-.93,3,3,0,0,1,.28-1.32,3,3,0,0,1,.8-1,3.5,3.5,0,0,1,1.19-.65,4.6,4.6,0,0,1,1.51-.24,6.67,6.67,0,0,1,2,.29,4.93,4.93,0,0,1,1.8,1l-1.12,1.72a7.83,7.83,0,0,0-1.44-.81,3.45,3.45,0,0,0-1.22-.25,1.63,1.63,0,0,0-.8.19.66.66,0,0,0-.32.6.65.65,0,0,0,.35.6,6.31,6.31,0,0,0,1.31.43,17.41,17.41,0,0,1,1.7.54,4.65,4.65,0,0,1,1.12.6,2.07,2.07,0,0,1,.63.77,2.47,2.47,0,0,1,.2,1,2.73,2.73,0,0,1-1,2.24A4.45,4.45,0,0,1,499.2,106.19Z"/><path class="cls-6" d="M508.18,106.19a7.44,7.44,0,0,1-2.37-.38,5.49,5.49,0,0,1-2-1.13l1-1.76a9.42,9.42,0,0,0,1.68.92,4.45,4.45,0,0,0,1.58.32,1.58,1.58,0,0,0,.86-.2.63.63,0,0,0,.31-.57.68.68,0,0,0-.39-.61,5.49,5.49,0,0,0-1.36-.47c-.63-.18-1.17-.36-1.61-.53a4.63,4.63,0,0,1-1.07-.55,1.87,1.87,0,0,1-.59-.71,2.2,2.2,0,0,1-.18-.93,2.9,2.9,0,0,1,.29-1.32,2.85,2.85,0,0,1,.79-1,3.46,3.46,0,0,1,1.2-.65,4.54,4.54,0,0,1,1.5-.24,6.74,6.74,0,0,1,2,.29,4.89,4.89,0,0,1,1.79,1l-1.12,1.72a7.83,7.83,0,0,0-1.44-.81,3.45,3.45,0,0,0-1.22-.25,1.59,1.59,0,0,0-.79.19.7.7,0,0,0,0,1.2,6.31,6.31,0,0,0,1.31.43,16.58,16.58,0,0,1,1.7.54,4.47,4.47,0,0,1,1.12.6,2.07,2.07,0,0,1,.63.77,2.32,2.32,0,0,1,.2,1,2.73,2.73,0,0,1-1,2.24A4.45,4.45,0,0,1,508.18,106.19Z"/><path class="cls-6" d="M516.12,106.19a3.66,3.66,0,0,1-1.3-.22,3,3,0,0,1-1-.63,2.91,2.91,0,0,1-.68-1,2.84,2.84,0,0,1-.26-1.2,2.72,2.72,0,0,1,.3-1.28,3,3,0,0,1,.84-1,4.06,4.06,0,0,1,1.28-.65,5.53,5.53,0,0,1,1.63-.23,6.34,6.34,0,0,1,1.16.1,3.69,3.69,0,0,1,1,.29V100c0-1.09-.63-1.64-1.89-1.64a4.09,4.09,0,0,0-1.48.27,6.59,6.59,0,0,0-1.47.78l-.85-1.8a7.31,7.31,0,0,1,1.94-.92,7.55,7.55,0,0,1,2.15-.31,4.94,4.94,0,0,1,3.31,1,3.68,3.68,0,0,1,1.17,3v2.43a1,1,0,0,0,.13.61.67.67,0,0,0,.48.2V106a5.16,5.16,0,0,1-.68.12l-.56,0a2,2,0,0,1-1.23-.32,1.39,1.39,0,0,1-.52-.89l0-.43a4.34,4.34,0,0,1-1.5,1.24A4.12,4.12,0,0,1,516.12,106.19Zm.85-2.07a2.51,2.51,0,0,0,.9-.16,2.08,2.08,0,0,0,.73-.43.89.89,0,0,0,.42-.68V102a4.91,4.91,0,0,0-.82-.23,5,5,0,0,0-.82-.08,2.25,2.25,0,0,0-1.31.36,1.1,1.1,0,0,0-.51.94,1.05,1.05,0,0,0,.4.85A1.52,1.52,0,0,0,517,104.12Z"/><path class="cls-6" d="M527.66,106.05a3.84,3.84,0,0,1-1.71-.38,4,4,0,0,1-1.33-1,4.9,4.9,0,0,1-.85-1.52,5.57,5.57,0,0,1-.31-1.85,5.47,5.47,0,0,1,.33-1.93,4.58,4.58,0,0,1,.9-1.55,4.06,4.06,0,0,1,1.38-1,4.22,4.22,0,0,1,1.79-.38,3.79,3.79,0,0,1,1.88.46A3.54,3.54,0,0,1,531,98.11V96.56h2.51v8.81a4.52,4.52,0,0,1-.41,1.94,4.17,4.17,0,0,1-1.12,1.47,5,5,0,0,1-1.73.92,7.09,7.09,0,0,1-2.22.33,6.24,6.24,0,0,1-2.61-.49,5.48,5.48,0,0,1-1.89-1.4l1.55-1.57a3.81,3.81,0,0,0,1.3,1,4,4,0,0,0,1.65.35,3.21,3.21,0,0,0,1-.15,2.21,2.21,0,0,0,.83-.44,2,2,0,0,0,.57-.77,2.83,2.83,0,0,0,.21-1.14v-.92a2.84,2.84,0,0,1-1.25,1.2A3.83,3.83,0,0,1,527.66,106.05Zm1-2.29a2.06,2.06,0,0,0,1.19-.36,2.76,2.76,0,0,0,.81-1v-2a2.71,2.71,0,0,0-.89-1.2,2.08,2.08,0,0,0-1.26-.44,1.76,1.76,0,0,0-.85.21,2.11,2.11,0,0,0-.67.56,2.61,2.61,0,0,0-.43.81,3,3,0,0,0-.15.94,2.57,2.57,0,0,0,.17,1,2.23,2.23,0,0,0,.48.76,2.08,2.08,0,0,0,.71.5A2.14,2.14,0,0,0,528.65,103.76Z"/><path class="cls-6" d="M540,106.19a5.54,5.54,0,0,1-2.13-.38,4.71,4.71,0,0,1-1.6-1.06,4.46,4.46,0,0,1-1-1.53,5,5,0,0,1-.34-1.83,5.42,5.42,0,0,1,.34-1.94,4.84,4.84,0,0,1,1-1.59,4.48,4.48,0,0,1,1.59-1.08,6,6,0,0,1,4.3,0,4.65,4.65,0,0,1,1.58,1.07,4.53,4.53,0,0,1,1,1.56,5.23,5.23,0,0,1,.33,1.85c0,.17,0,.34,0,.5a3.84,3.84,0,0,1-.06.42h-7a2,2,0,0,0,.69,1.45,2.2,2.2,0,0,0,1.41.49,2.65,2.65,0,0,0,1.22-.3,1.57,1.57,0,0,0,.78-.83l2.45.68a4.38,4.38,0,0,1-1.73,1.82A5.33,5.33,0,0,1,540,106.19Zm2-5.79a2.11,2.11,0,0,0-.65-1.42,2.07,2.07,0,0,0-2.78,0,2.21,2.21,0,0,0-.64,1.41Z"/><path class="cls-6" d="M485.17,127.79a3.83,3.83,0,0,1-1.89-.45,3.37,3.37,0,0,1-1.28-1.29v1.56h-2.5V114.47h2.88v5.24a3.46,3.46,0,0,1,1.25-1.27,3.65,3.65,0,0,1,1.85-.46,3.55,3.55,0,0,1,1.65.39,4,4,0,0,1,1.3,1,5,5,0,0,1,.84,1.58,5.87,5.87,0,0,1,.31,1.93,5.45,5.45,0,0,1-.33,1.92,4.82,4.82,0,0,1-.93,1.55,4.35,4.35,0,0,1-1.41,1A4.2,4.2,0,0,1,485.17,127.79Zm-.81-2.43a2.32,2.32,0,0,0,.92-.18,2.29,2.29,0,0,0,.71-.52,2.44,2.44,0,0,0,.47-.76,2.78,2.78,0,0,0,.17-1,3.12,3.12,0,0,0-.16-1,2.72,2.72,0,0,0-.45-.8,2,2,0,0,0-.67-.54,1.9,1.9,0,0,0-2.1.27,3,3,0,0,0-.87,1.17v2a2.18,2.18,0,0,0,.84,1A2,2,0,0,0,484.36,125.36Z"/><path class="cls-6" d="M497,120.63a5.67,5.67,0,0,0-1.89.34,2.33,2.33,0,0,0-1.22,1v5.67H491v-9.45h2.65v1.91a4,4,0,0,1,1.25-1.49,2.86,2.86,0,0,1,1.63-.56h.28l.18,0Z"/><path class="cls-6" d="M502.25,127.79a5.61,5.61,0,0,1-2.15-.39,4.74,4.74,0,0,1-1.59-1.07,4.34,4.34,0,0,1-1-1.57,5.26,5.26,0,0,1,0-3.72,4.34,4.34,0,0,1,1-1.57,4.76,4.76,0,0,1,1.59-1.08,5.42,5.42,0,0,1,2.15-.41,5.3,5.3,0,0,1,2.14.41,4.76,4.76,0,0,1,1.59,1.08,4.65,4.65,0,0,1,1,1.57,5.33,5.33,0,0,1,0,3.72,4.51,4.51,0,0,1-1,1.57,4.74,4.74,0,0,1-1.59,1.07A5.57,5.57,0,0,1,502.25,127.79Zm-2.1-4.89a2.6,2.6,0,0,0,.59,1.79,1.93,1.93,0,0,0,1.51.67,1.9,1.9,0,0,0,.83-.18,2,2,0,0,0,.66-.5,2.68,2.68,0,0,0,.44-.78,3.22,3.22,0,0,0,.16-1,2.58,2.58,0,0,0-.6-1.79,1.89,1.89,0,0,0-1.49-.68,2,2,0,0,0-.84.18,1.92,1.92,0,0,0-.66.51,2.12,2.12,0,0,0-.44.78A3,3,0,0,0,500.15,122.9Z"/><path class="cls-6" d="M515.09,127.61l-2.47-3.79-1,1v2.75h-2.88V114.47h2.88v7.62l3.19-3.93h3.06l-3.41,4.07,3.7,5.38Z"/><path class="cls-6" d="M523,127.79a5.54,5.54,0,0,1-2.13-.38,4.71,4.71,0,0,1-1.6-1.06,4.46,4.46,0,0,1-1-1.53,5,5,0,0,1-.34-1.83,5.42,5.42,0,0,1,.34-1.94,4.84,4.84,0,0,1,1-1.59,4.48,4.48,0,0,1,1.59-1.08,6,6,0,0,1,4.3,0,4.65,4.65,0,0,1,1.58,1.07,4.53,4.53,0,0,1,1,1.56,5.23,5.23,0,0,1,.33,1.85c0,.17,0,.34,0,.5a2.35,2.35,0,0,1-.06.42h-7a2,2,0,0,0,.69,1.45,2.23,2.23,0,0,0,1.42.49,2.61,2.61,0,0,0,1.21-.3,1.57,1.57,0,0,0,.78-.83l2.45.68a4.38,4.38,0,0,1-1.73,1.82A5.33,5.33,0,0,1,523,127.79Zm2-5.79a2.14,2.14,0,0,0-.64-1.42,2,2,0,0,0-1.39-.53,1.92,1.92,0,0,0-1.4.54,2.15,2.15,0,0,0-.63,1.41Z"/><path class="cls-6" d="M535.35,120.63a5.67,5.67,0,0,0-1.89.34,2.33,2.33,0,0,0-1.22,1v5.67h-2.88v-9.45H532v1.91a4.12,4.12,0,0,1,1.26-1.49,2.86,2.86,0,0,1,1.62-.56h.29l.18,0Z"/><path class="cls-6" d="M36,108.22a2,2,0,0,0-1.91,2,1.91,1.91,0,1,0,1.91-2Zm-6.83,0a2,2,0,0,0-1.9,2,1.91,1.91,0,1,0,3.81,0A2,2,0,0,0,29.14,108.22Z"/><path class="cls-6" d="M45.05,92.66H20a3.84,3.84,0,0,0-3.83,3.83v25.06A3.84,3.84,0,0,0,20,125.38H41.2l-1-3.42,2.4,2.2,2.26,2.08,4,3.5V96.49A3.87,3.87,0,0,0,45.05,92.66Zm-7.21,24.21s-.68-.8-1.24-1.49A5.94,5.94,0,0,0,40,113.17a10.45,10.45,0,0,1-2.15,1.1,13.15,13.15,0,0,1-2.71.81,13.32,13.32,0,0,1-4.85,0,15,15,0,0,1-2.74-.8,11.79,11.79,0,0,1-1.37-.64l-.17-.09s-.05,0-.07,0c-.34-.19-.53-.32-.53-.32a5.85,5.85,0,0,0,3.28,2.19c-.56.71-1.26,1.53-1.26,1.53a6.79,6.79,0,0,1-5.7-2.82,24.69,24.69,0,0,1,2.69-10.81,9.27,9.27,0,0,1,5.24-1.94l.19.22a12.34,12.34,0,0,0-4.9,2.43s.41-.22,1.1-.52a14.83,14.83,0,0,1,4.24-1.18,1.87,1.87,0,0,1,.32,0,15.82,15.82,0,0,1,3.78,0A15.63,15.63,0,0,1,40,104a12.3,12.3,0,0,0-4.66-2.35l.26-.3a9.23,9.23,0,0,1,5.24,1.94,24.69,24.69,0,0,1,2.69,10.81,6.85,6.85,0,0,1-5.7,2.8Zm28.23-16.21H59.86v7L64,111.36v-6.77H66.2c1.4,0,2.09.67,2.09,1.76v5.18c0,1.08-.65,1.81-2.09,1.81H59.84v3.94h6.21c3.33,0,6.45-1.64,6.45-5.46v-5.57C72.52,102.36,69.4,100.66,66.07,100.66ZM98.6,111.82V106.1c0-2,3.7-2.52,4.83-.46l3.42-1.39a6.17,6.17,0,0,0-5.84-3.81c-3.32,0-6.61,1.92-6.61,5.66v5.72c0,3.78,3.29,5.67,6.54,5.67a6.68,6.68,0,0,0,6-3.72l-3.66-1.68c-.9,2.3-4.66,1.74-4.66-.27Zm-11.31-4.93c-1.29-.28-2.15-.75-2.21-1.55.08-1.93,3-2,4.79-.15l2.75-2.12A6.83,6.83,0,0,0,87,100.42c-3,0-6,1.72-6,5s2.43,4.86,5.11,5.28c1.36.18,2.88.72,2.84,1.66-.11,1.78-3.78,1.68-5.44-.34l-2.66,2.49a7.29,7.29,0,0,0,5.65,3c3,0,6.43-1.76,6.56-5,.19-4.06-2.77-5.09-5.72-5.63ZM74.76,117.27H79V100.66H74.76Zm70.62-16.61h-6.21v7l4.14,3.72v-6.77h2.2c1.4,0,2.1.67,2.1,1.76v5.18c0,1.08-.66,1.81-2.1,1.81h-6.35v3.94h6.22c3.33,0,6.45-1.64,6.45-5.46v-5.57C151.83,102.36,148.71,100.66,145.38,100.66Zm-30.46-.22c-3.44,0-6.86,1.87-6.86,5.7v5.67c0,3.79,3.44,5.7,6.9,5.7s6.86-1.91,6.86-5.7v-5.67C121.82,102.33,118.36,100.44,114.92,100.44Zm2.7,11.37c0,1.19-1.35,1.81-2.68,1.81s-2.69-.58-2.69-1.81v-5.67c0-1.21,1.31-1.87,2.62-1.87s2.75.58,2.75,1.87Zm19.24-5.67c-.1-3.89-2.75-5.46-6.17-5.46h-6.64v16.6h4.24V112H129l3.85,5.27h5.24l-4.53-5.7C135.6,111,136.86,109.21,136.86,106.14Zm-6.1,2.24h-2.47v-3.79h2.47A1.9,1.9,0,1,1,130.76,108.38Z"/><line class="cls-4" x1="168" y1="112.45" x2="211.41" y2="112.45"/><line class="cls-8" x1="168" y1="112.45" x2="205.38" y2="112.45"/><path d="M211.41,112.45a30.31,30.31,0,0,0-8.55,4.75l1.72-4.75-1.72-4.76A30.34,30.34,0,0,0,211.41,112.45Z"/><line class="cls-4" x1="379.41" y1="112.45" x2="422.82" y2="112.45"/><line class="cls-8" x1="379.41" y1="112.45" x2="416.79" y2="112.45"/><path d="M422.82,112.45a30.12,30.12,0,0,0-8.54,4.75l1.72-4.75-1.72-4.76A30.15,30.15,0,0,0,422.82,112.45Z"/><rect class="cls-8" x="634.94" y="28.45" width="168" height="168" rx="18"/><path d="M679.12,105.28l2.75,5.87,2.79-5.87h3.22l-4.55,8.43v4.35h-2.94v-4.39l-4.48-8.39Z"/><path d="M691.66,118.24a5.61,5.61,0,0,1-2.15-.39,4.74,4.74,0,0,1-1.59-1.07,4.57,4.57,0,0,1-1-1.57,5.32,5.32,0,0,1-.33-1.86,5.38,5.38,0,0,1,.33-1.87,4.53,4.53,0,0,1,1-1.56,4.76,4.76,0,0,1,1.59-1.08,5.42,5.42,0,0,1,2.15-.41,5.3,5.3,0,0,1,2.14.41,4.76,4.76,0,0,1,1.59,1.08,4.71,4.71,0,0,1,1,1.56,5.16,5.16,0,0,1,.34,1.87,5.32,5.32,0,0,1-.33,1.86,4.57,4.57,0,0,1-1,1.57,4.88,4.88,0,0,1-1.6,1.07A5.57,5.57,0,0,1,691.66,118.24Zm-2.1-4.89a2.65,2.65,0,0,0,.59,1.79,1.93,1.93,0,0,0,1.51.67,1.9,1.9,0,0,0,.83-.18,2.14,2.14,0,0,0,.66-.5,2.68,2.68,0,0,0,.44-.78,3,3,0,0,0,.16-1,2.63,2.63,0,0,0-.59-1.79,1.93,1.93,0,0,0-1.5-.68,1.9,1.9,0,0,0-.83.18,2.07,2.07,0,0,0-.67.5,2.42,2.42,0,0,0-.44.79A2.91,2.91,0,0,0,689.56,113.35Z"/><path d="M701,118.24a2.67,2.67,0,0,1-2.2-.91,4.09,4.09,0,0,1-.75-2.67v-6h2.88V114a2.14,2.14,0,0,0,.35,1.32,1.12,1.12,0,0,0,1,.46,2.26,2.26,0,0,0,1.11-.3,2.68,2.68,0,0,0,1-1.07v-5.83h2.88v6.21a1,1,0,0,0,.13.6.64.64,0,0,0,.48.21v2.43a6.88,6.88,0,0,1-.7.12l-.53,0c-1,0-1.62-.41-1.76-1.21l-.05-.58a3.93,3.93,0,0,1-1.61,1.38A5.21,5.21,0,0,1,701,118.24Z"/><path d="M715.42,111.08a5.43,5.43,0,0,0-1.89.34,2.33,2.33,0,0,0-1.22,1v5.67h-2.88v-9.45h2.64v1.91a4,4,0,0,1,1.26-1.49,2.86,2.86,0,0,1,1.62-.56h.29a.55.55,0,0,1,.18,0Z"/><path d="M723.07,118.24a3.7,3.7,0,0,1-1.3-.22,2.94,2.94,0,0,1-1.72-1.59,2.76,2.76,0,0,1-.25-1.19,2.74,2.74,0,0,1,1.13-2.27,4.17,4.17,0,0,1,1.28-.65,5.29,5.29,0,0,1,1.64-.23,6.23,6.23,0,0,1,1.15.1,3.69,3.69,0,0,1,1,.29v-.43c0-1.09-.63-1.64-1.89-1.64a4.21,4.21,0,0,0-1.47.26,7.16,7.16,0,0,0-1.48.79l-.85-1.8a7.37,7.37,0,0,1,2-.92,7.1,7.1,0,0,1,2.14-.31,4.92,4.92,0,0,1,3.31,1,3.68,3.68,0,0,1,1.17,3v2.43a1,1,0,0,0,.14.6.61.61,0,0,0,.47.21v2.43a5.16,5.16,0,0,1-.68.12l-.56,0a2,2,0,0,1-1.22-.32,1.43,1.43,0,0,1-.53-.89l-.05-.43a4.34,4.34,0,0,1-1.5,1.24A4.09,4.09,0,0,1,723.07,118.24Zm.85-2.07a2.61,2.61,0,0,0,.91-.16,2.27,2.27,0,0,0,.73-.43.92.92,0,0,0,.41-.69V114a5.08,5.08,0,0,0-1.64-.3,2.19,2.19,0,0,0-1.3.36,1.1,1.1,0,0,0-.52.93,1.09,1.09,0,0,0,.4.86A1.52,1.52,0,0,0,723.92,116.17Z"/><path d="M736.91,118.24a3.72,3.72,0,0,1-1.87-.45,3.08,3.08,0,0,1-1.22-1.26v5.37h-2.88V108.61h2.5v1.53a3.75,3.75,0,0,1,1.31-1.26,3.66,3.66,0,0,1,1.86-.45,4.07,4.07,0,0,1,1.75.38,4.2,4.2,0,0,1,1.39,1,4.93,4.93,0,0,1,.92,1.54,5.53,5.53,0,0,1,.33,1.92,5.88,5.88,0,0,1-.31,2,4.87,4.87,0,0,1-.84,1.56,3.83,3.83,0,0,1-1.3,1A3.5,3.5,0,0,1,736.91,118.24Zm-1-2.43a1.91,1.91,0,0,0,.86-.2,2.38,2.38,0,0,0,.67-.55,2.49,2.49,0,0,0,.44-.8,2.86,2.86,0,0,0,.16-1,2.69,2.69,0,0,0-.17-1,2.84,2.84,0,0,0-.47-.77,2.16,2.16,0,0,0-.72-.5,2.31,2.31,0,0,0-.91-.18,2.09,2.09,0,0,0-1.14.35,2.27,2.27,0,0,0-.84,1v1.94a3,3,0,0,0,.87,1.21A1.94,1.94,0,0,0,735.94,115.81Z"/><path d="M748.43,118.24a3.72,3.72,0,0,1-1.87-.45,3.08,3.08,0,0,1-1.22-1.26v5.37h-2.88V108.61H745v1.53a3.75,3.75,0,0,1,1.31-1.26,3.66,3.66,0,0,1,1.86-.45,4.07,4.07,0,0,1,1.75.38,4.2,4.2,0,0,1,1.39,1,4.93,4.93,0,0,1,.92,1.54,5.53,5.53,0,0,1,.33,1.92,5.88,5.88,0,0,1-.31,2,4.87,4.87,0,0,1-.84,1.56,3.83,3.83,0,0,1-1.3,1A3.5,3.5,0,0,1,748.43,118.24Zm-1-2.43a1.91,1.91,0,0,0,.86-.2,2.38,2.38,0,0,0,.67-.55,2.49,2.49,0,0,0,.44-.8,3.13,3.13,0,0,0,.16-1,2.69,2.69,0,0,0-.17-1,2.61,2.61,0,0,0-.47-.77,2.16,2.16,0,0,0-.72-.5,2.34,2.34,0,0,0-.91-.18,2.09,2.09,0,0,0-1.14.35,2.27,2.27,0,0,0-.84,1v1.94a3,3,0,0,0,.87,1.21A1.94,1.94,0,0,0,747.46,115.81Z"/><path d="M757.7,118.24a7.73,7.73,0,0,1-2.37-.38,5.49,5.49,0,0,1-2-1.13l1-1.76a8.52,8.52,0,0,0,1.69.91,4.18,4.18,0,0,0,1.57.33,1.65,1.65,0,0,0,.87-.2.64.64,0,0,0,.3-.58.68.68,0,0,0-.38-.6,6.23,6.23,0,0,0-1.36-.48c-.64-.18-1.18-.35-1.62-.52a4.63,4.63,0,0,1-1.07-.56,1.78,1.78,0,0,1-.59-.7,2.2,2.2,0,0,1-.18-.93,3,3,0,0,1,.29-1.32,3,3,0,0,1,.79-1,3.83,3.83,0,0,1,1.2-.64,4.54,4.54,0,0,1,1.5-.24,6.74,6.74,0,0,1,2,.29,5,5,0,0,1,1.79,1L760,111.49a7.79,7.79,0,0,0-1.43-.81,3.29,3.29,0,0,0-1.23-.25,1.49,1.49,0,0,0-.79.19.65.65,0,0,0-.33.6.66.66,0,0,0,.35.6,6.31,6.31,0,0,0,1.31.43,16.58,16.58,0,0,1,1.7.54,4.74,4.74,0,0,1,1.13.6,2.19,2.19,0,0,1,.63.77,2.44,2.44,0,0,1,.19,1,2.67,2.67,0,0,1-1,2.23A4.39,4.39,0,0,1,757.7,118.24Z"/><line class="cls-4" x1="590.82" y1="111.2" x2="634.24" y2="111.2"/><line class="cls-8" x1="590.82" y1="111.2" x2="628.2" y2="111.2"/><path d="M634.24,111.2a30.18,30.18,0,0,0-8.55,4.75l1.72-4.75-1.72-4.76A30,30,0,0,0,634.24,111.2Z"/><line class="cls-4" x1="591.18" y1="150.73" x2="634.59" y2="150.73"/><line class="cls-8" x1="591.18" y1="150.73" x2="628.55" y2="150.73"/><path d="M634.59,150.73a30.18,30.18,0,0,0-8.55,4.75l1.72-4.75L626,146A30,30,0,0,0,634.59,150.73Z"/><line class="cls-4" x1="591.18" y1="71.67" x2="634.59" y2="71.67"/><line class="cls-8" x1="591.18" y1="71.67" x2="628.55" y2="71.67"/><path d="M634.59,71.67A30.18,30.18,0,0,0,626,76.42l1.72-4.75L626,66.91A30,30,0,0,0,634.59,71.67Z"/><path d="M382.85,229.33a2.53,2.53,0,0,0-.59-.42,9.11,9.11,0,0,0-1.26-.64,11.36,11.36,0,0,0-1.65-.59,6.5,6.5,0,0,0-1.79-.25q-2.46,0-2.46,1.65a1.32,1.32,0,0,0,.26.84,2.44,2.44,0,0,0,.79.6,6.73,6.73,0,0,0,1.3.49l1.82.5a24.89,24.89,0,0,1,2.57.86,6.84,6.84,0,0,1,2,1.15,4.62,4.62,0,0,1,1.23,1.66,5.8,5.8,0,0,1,.43,2.35,5.94,5.94,0,0,1-.63,2.85,5.27,5.27,0,0,1-1.66,1.87,7,7,0,0,1-2.38,1,12.13,12.13,0,0,1-2.77.32,15.68,15.68,0,0,1-2.24-.17,15.13,15.13,0,0,1-2.24-.49,16.7,16.7,0,0,1-2.12-.77,12.19,12.19,0,0,1-1.89-1l2-4a3.51,3.51,0,0,0,.73.53,10.1,10.1,0,0,0,1.52.79,17.14,17.14,0,0,0,2,.7,8.81,8.81,0,0,0,2.27.31c1.63,0,2.44-.5,2.44-1.49a1.22,1.22,0,0,0-.37-.92,3.53,3.53,0,0,0-1-.66,10.09,10.09,0,0,0-1.52-.55c-.59-.16-1.23-.35-1.92-.56a16.31,16.31,0,0,1-2.38-.91,6,6,0,0,1-1.66-1.13,4,4,0,0,1-1-1.48,5.37,5.37,0,0,1-.33-2A6.31,6.31,0,0,1,371,227a6,6,0,0,1,1.6-2,6.91,6.91,0,0,1,2.34-1.24,9.23,9.23,0,0,1,2.81-.42,10.68,10.68,0,0,1,2,.19,14.49,14.49,0,0,1,1.94.51,14,14,0,0,1,1.72.7q.8.39,1.47.78Z"/><path d="M397.07,243.67a5.86,5.86,0,0,1-2.91-.7,4.85,4.85,0,0,1-1.9-2v8.34h-4.48V228.69h3.89v2.38a5.84,5.84,0,0,1,2-2,5.69,5.69,0,0,1,2.9-.7,6.34,6.34,0,0,1,2.73.58,6.86,6.86,0,0,1,2.16,1.61,7.6,7.6,0,0,1,1.42,2.41,8.37,8.37,0,0,1,.52,3,9.44,9.44,0,0,1-.48,3.06,7.51,7.51,0,0,1-1.31,2.42,6.08,6.08,0,0,1-2,1.61A5.63,5.63,0,0,1,397.07,243.67Zm-1.51-3.78a2.7,2.7,0,0,0,1.33-.33,3.57,3.57,0,0,0,1.05-.85,3.7,3.7,0,0,0,.69-1.25,4.61,4.61,0,0,0,.24-1.49,4,4,0,0,0-.27-1.5,3.67,3.67,0,0,0-.73-1.19,3.12,3.12,0,0,0-1.12-.79,3.69,3.69,0,0,0-1.41-.28,3.29,3.29,0,0,0-1.78.55,3.5,3.5,0,0,0-1.3,1.47v3a4.59,4.59,0,0,0,1.36,1.88A3,3,0,0,0,395.56,239.89Z"/><path d="M412.73,243.67a8.69,8.69,0,0,1-3.32-.61,7.33,7.33,0,0,1-2.49-1.63,7.11,7.11,0,0,1-1.56-2.4,7.78,7.78,0,0,1-.53-2.84,8.59,8.59,0,0,1,.53-3,7.46,7.46,0,0,1,1.54-2.48,7.16,7.16,0,0,1,2.48-1.68,8.63,8.63,0,0,1,3.35-.61,8.49,8.49,0,0,1,3.33.61,7.29,7.29,0,0,1,2.46,1.67,7.21,7.21,0,0,1,1.53,2.42,8.21,8.21,0,0,1,.52,2.88c0,.27,0,.52,0,.77a4.8,4.8,0,0,1-.09.66H409.59a3.08,3.08,0,0,0,1.08,2.26,3.45,3.45,0,0,0,2.2.77,4,4,0,0,0,1.89-.48,2.5,2.5,0,0,0,1.22-1.29l3.8,1.07a6.8,6.8,0,0,1-2.69,2.82A8.28,8.28,0,0,1,412.73,243.67Zm3.1-9a3.38,3.38,0,0,0-1-2.21,3,3,0,0,0-2.16-.81,3,3,0,0,0-2.17.82,3.42,3.42,0,0,0-1,2.2Z"/><path d="M421.74,236a7.94,7.94,0,0,1,.54-2.9,7,7,0,0,1,1.54-2.43,7.23,7.23,0,0,1,2.47-1.67,8.63,8.63,0,0,1,3.35-.61,7.93,7.93,0,0,1,4.28,1.07,6.93,6.93,0,0,1,2.61,2.82l-4.37,1.31a2.83,2.83,0,0,0-2.55-1.4,3,3,0,0,0-2.34,1,4,4,0,0,0-.94,2.77,4.63,4.63,0,0,0,.26,1.58,3.4,3.4,0,0,0,.7,1.22,3.23,3.23,0,0,0,1,.79,3.06,3.06,0,0,0,2.81-.13,2.62,2.62,0,0,0,1-1l4.37,1.34a6.59,6.59,0,0,1-2.6,2.8,8.06,8.06,0,0,1-4.32,1.1,8.36,8.36,0,0,1-3.32-.63,7.59,7.59,0,0,1-2.49-1.68,7.1,7.1,0,0,1-1.55-2.44A7.9,7.9,0,0,1,421.74,236Z"/><path d="M448.09,242.6a17.77,17.77,0,0,1-2.11.73,9,9,0,0,1-2.4.34,5.75,5.75,0,0,1-1.58-.21,3.52,3.52,0,0,1-1.3-.68,3,3,0,0,1-.88-1.21,4.55,4.55,0,0,1-.33-1.82v-7.68h-1.87v-3.38h1.87V224H444v4.68h3v3.38h-3v6.14a1.2,1.2,0,0,0,1.29,1.37,3.53,3.53,0,0,0,1-.17,6.32,6.32,0,0,0,.92-.36Z"/><path d="M454,243.67a5.81,5.81,0,0,1-2-.35,4.67,4.67,0,0,1-2.68-2.47,4.43,4.43,0,0,1-.39-1.86,4.38,4.38,0,0,1,.46-2,4.59,4.59,0,0,1,1.31-1.54,6.6,6.6,0,0,1,2-1,8.54,8.54,0,0,1,2.55-.36,10.46,10.46,0,0,1,1.79.15,6,6,0,0,1,1.52.47V234c0-1.69-1-2.54-2.94-2.54a6.55,6.55,0,0,0-2.3.4,11.24,11.24,0,0,0-2.3,1.22l-1.31-2.8a11.72,11.72,0,0,1,3-1.43,11.36,11.36,0,0,1,3.33-.47,7.7,7.7,0,0,1,5.16,1.56,5.76,5.76,0,0,1,1.82,4.6v3.78a1.53,1.53,0,0,0,.21.93,1,1,0,0,0,.74.33v3.78a8.24,8.24,0,0,1-1.07.18c-.31,0-.6,0-.86,0a3.11,3.11,0,0,1-1.91-.49,2.17,2.17,0,0,1-.81-1.39l-.08-.67a6.73,6.73,0,0,1-2.34,1.93A6.38,6.38,0,0,1,454,243.67Zm1.31-3.22a4.06,4.06,0,0,0,1.42-.26,3.14,3.14,0,0,0,1.13-.67,1.39,1.39,0,0,0,.65-1.06v-1.4a7.05,7.05,0,0,0-1.28-.35,6.59,6.59,0,0,0-1.27-.13,3.48,3.48,0,0,0-2,.56,1.71,1.71,0,0,0-.8,1.46,1.64,1.64,0,0,0,.62,1.33A2.37,2.37,0,0,0,455.31,240.45Z"/><path d="M465.37,236a7.93,7.93,0,0,1,.53-2.9,7.18,7.18,0,0,1,1.54-2.43,7.28,7.28,0,0,1,2.48-1.67,8.57,8.57,0,0,1,3.34-.61,8,8,0,0,1,4.29,1.07,7,7,0,0,1,2.6,2.82l-4.37,1.31a2.83,2.83,0,0,0-2.55-1.4,3,3,0,0,0-2.33,1A3.94,3.94,0,0,0,470,236a4.64,4.64,0,0,0,.25,1.58,3.55,3.55,0,0,0,.7,1.22,3.23,3.23,0,0,0,1,.79,3.09,3.09,0,0,0,1.27.28,3,3,0,0,0,1.54-.41,2.56,2.56,0,0,0,1-1l4.37,1.34a6.56,6.56,0,0,1-2.59,2.8,8.12,8.12,0,0,1-4.33,1.1,8.36,8.36,0,0,1-3.32-.63,7.59,7.59,0,0,1-2.49-1.68,7.1,7.1,0,0,1-1.55-2.44A7.89,7.89,0,0,1,465.37,236Z"/><path d="M482.14,223h4.48v15.2c0,1.12.47,1.68,1.43,1.68a3,3,0,0,0,.74-.1,2.54,2.54,0,0,0,.74-.29l.59,3.36a8.93,8.93,0,0,1-1.93.61,10.21,10.21,0,0,1-2.05.23,4.09,4.09,0,0,1-3-1,3.87,3.87,0,0,1-1-2.91Z"/><path d="M498.6,243.67a8.73,8.73,0,0,1-3.32-.61,7.33,7.33,0,0,1-2.49-1.63,6.94,6.94,0,0,1-1.55-2.4,7.58,7.58,0,0,1-.53-2.84,8.36,8.36,0,0,1,.53-3,7.3,7.3,0,0,1,1.54-2.48,7.16,7.16,0,0,1,2.48-1.68,8.57,8.57,0,0,1,3.34-.61,8.49,8.49,0,0,1,3.33.61,7.33,7.33,0,0,1,2.47,1.67,7,7,0,0,1,1.52,2.42,8,8,0,0,1,.52,2.88c0,.27,0,.52,0,.77a3.72,3.72,0,0,1-.08.66H495.47a3,3,0,0,0,1.07,2.26,3.47,3.47,0,0,0,2.2.77,4,4,0,0,0,1.89-.48,2.46,2.46,0,0,0,1.22-1.29l3.81,1.07a6.86,6.86,0,0,1-2.69,2.82A8.32,8.32,0,0,1,498.6,243.67Zm3.11-9a3.35,3.35,0,0,0-1-2.21,3,3,0,0,0-2.15-.81,3,3,0,0,0-2.17.82,3.48,3.48,0,0,0-1,2.2Z"/><path d="M514.28,243.67a11.81,11.81,0,0,1-3.7-.61,8.46,8.46,0,0,1-3.08-1.75l1.6-2.74a13.4,13.4,0,0,0,2.62,1.43,6.78,6.78,0,0,0,2.45.5,2.42,2.42,0,0,0,1.34-.31,1,1,0,0,0,.48-.89,1.06,1.06,0,0,0-.6-.94,9.39,9.39,0,0,0-2.12-.74c-1-.28-1.82-.55-2.5-.81a7.38,7.38,0,0,1-1.67-.87,2.76,2.76,0,0,1-.92-1.09,3.46,3.46,0,0,1-.28-1.46,4.56,4.56,0,0,1,.45-2,4.39,4.39,0,0,1,1.23-1.57,5.73,5.73,0,0,1,1.86-1,7.36,7.36,0,0,1,2.34-.36,10.31,10.31,0,0,1,3.09.44,7.75,7.75,0,0,1,2.79,1.63l-1.74,2.69a11.78,11.78,0,0,0-2.24-1.26,5,5,0,0,0-1.9-.4,2.4,2.4,0,0,0-1.24.3,1,1,0,0,0-.5.94,1,1,0,0,0,.55.92,8.64,8.64,0,0,0,2,.67,26.21,26.21,0,0,1,2.64.84,6.77,6.77,0,0,1,1.75.94,3.13,3.13,0,0,1,1,1.19,3.74,3.74,0,0,1,.31,1.6,4.21,4.21,0,0,1-1.62,3.47A6.9,6.9,0,0,1,514.28,243.67Z"/><g id="layer1"><g id="g4533"><g id="path3680"><path d="M309.8,247.27a14.5,14.5,0,1,1,14.94-14.49A14.74,14.74,0,0,1,309.8,247.27Zm0-25.74a11.25,11.25,0,1,0,11.7,11.25A11.5,11.5,0,0,0,309.8,221.53Z"/></g><g id="path3680-3"><path d="M347.14,247.64a14.5,14.5,0,1,1,14.94-14.49A14.74,14.74,0,0,1,347.14,247.64Zm0-25.73a11.25,11.25,0,1,0,11.69,11.24A11.49,11.49,0,0,0,347.14,221.91Z"/></g><g id="path3707"><path d="M336.14,227.93c-.5,0-.74-.13-2.08-.85l-.08,0a13,13,0,0,0-5.38-1.83c-2.12-.07-4.47,1-7,2.11l-1.3-2.88c2.7-1.22,5.5-2.49,8.36-2.4a15.94,15.94,0,0,1,6.78,2.21l.07,0c.84.44,1,.54,1.1.56a1.48,1.48,0,0,0-.51-.09Z"/></g></g></g></g></g></svg>